<?xml version="1.0" encoding="UTF-8" standalone="no"?>
<!-- Created with Inkscape (http://www.inkscape.org/) -->

<svg
   width="256"
   height="256"
   viewBox="0 0 67.733334 67.733332"
   version="1.1"
   id="svg1"
   xml:space="preserve"
   inkscape:version="1.3.2 (091e20e, 2023-11-25)"
   sodipodi:docname="gcard_layout_plugin_icon.svg"
   xmlns:inkscape="http://www.inkscape.org/namespaces/inkscape"
   xmlns:sodipodi="http://sodipodi.sourceforge.net/DTD/sodipodi-0.dtd"
   xmlns="http://www.w3.org/2000/svg"
   xmlns:svg="http://www.w3.org/2000/svg"><sodipodi:namedview
     id="namedview1"
     pagecolor="#ffffff"
     bordercolor="#000000"
     borderopacity="0.25"
     inkscape:showpageshadow="2"
     inkscape:pageopacity="0.0"
     inkscape:pagecheckerboard="0"
     inkscape:deskcolor="#d1d1d1"
     inkscape:document-units="mm"
     inkscape:zoom="1.885227"
     inkscape:cx="134.99701"
     inkscape:cy="81.422557"
     inkscape:window-width="1680"
     inkscape:window-height="1212"
     inkscape:window-x="2966"
     inkscape:window-y="56"
     inkscape:window-maximized="0"
     inkscape:current-layer="layer1" /><defs
     id="defs1" /><g
     inkscape:label="Layer 1"
     inkscape:groupmode="layer"
     id="layer1"
     transform="matrix(4.3079357,0,0,4.3079357,-37.395854,-38.958822)"><g
       id="g1"
       transform="matrix(0.1280493,0,0,0.13240958,8.3469953,11.446156)"
       inkscape:label="Godot"
       style="display:inline;stroke:#080808;stroke-opacity:1"><g
         transform="matrix(0.101,0,0,0.101,12.288,-24.142048)"
         id="g7"
         inkscape:label="g7"
         style="stroke:#080808;stroke-opacity:1"><g
           fill="#ffffff"
           id="g4"
           inkscape:label="g4"
           style="stroke:#080808;stroke-opacity:1"><path
             d="m 105,673 v 33 q 407,354 814,0 v -33 z"
             id="path1"
             inkscape:label="path1"
             style="stroke:#080808;stroke-opacity:1" /><path
             d="m 105,673 152,14 q 12,1 15,14 l 4,67 132,10 8,-61 q 2,-11 15,-15 h 162 q 13,4 15,15 l 8,61 132,-10 4,-67 q 3,-13 15,-14 L 919,673 V 427 q 30,-39 56,-81 -35,-59 -83,-108 -43,20 -82,47 -40,-37 -88,-64 7,-51 8,-102 -59,-28 -123,-42 -26,43 -46,89 -49,-7 -98,0 -20,-46 -46,-89 -64,14 -123,42 1,51 8,102 -48,27 -88,64 -39,-27 -82,-47 -48,49 -83,108 26,42 56,81 z m 0,33 v 39 c 0,276 813,276 814,0 v -39 l -134,12 -5,69 q -2,10 -14,13 l -162,11 q -12,0 -16,-11 L 578,735 H 446 l -10,65 q -4,11 -16,11 L 258,800 q -12,-3 -14,-13 l -5,-69 z"
             fill="#478cbf"
             id="path2"
             inkscape:label="path2"
             style="stroke:#080808;stroke-width:20.1184;stroke-dasharray:none;stroke-opacity:1" /><path
             d="m 483,600 c 0,34 58,34 58,0 v -86 c 0,-34 -58,-34 -58,0 z"
             id="path3"
             style="stroke:#080808;stroke-opacity:1" /><circle
             cx="725"
             cy="526"
             r="90"
             id="circle3"
             inkscape:label="circle3"
             style="stroke:#080808;stroke-opacity:1" /><circle
             cx="299"
             cy="526"
             r="90"
             id="circle4"
             inkscape:label="circle4"
             style="stroke:#080808;stroke-opacity:1" /></g><g
           fill="#414042"
           id="g6"
           style="stroke:#080808;stroke-opacity:1"><circle
             cx="307"
             cy="532"
             r="60"
             id="circle5"
             style="stroke:#080808;stroke-opacity:1" /><circle
             cx="717"
             cy="532"
             r="60"
             id="circle6"
             inkscape:label="circle6"
             style="stroke:#080808;stroke-opacity:1" /></g></g></g><g
       id="g8"
       transform="matrix(0.04255687,0,0,0.04255687,10.315022,20.823181)"
       inkscape:label="Cards"><rect
         style="display:inline;opacity:1;fill:#24689b;fill-opacity:1;stroke:#080808;stroke-width:11.179;stroke-linecap:round;stroke-linejoin:round;stroke-dasharray:none;stroke-dashoffset:0;stroke-opacity:1;paint-order:stroke fill markers"
         id="rect14"
         width="88.706955"
         height="146.9875"
         x="-8.915946"
         y="-44.571541"
         ry="2.3646815"
         rx="1.5445035"
         inkscape:label="rect4"
         transform="rotate(-36.324514)" /><rect
         style="display:inline;opacity:1;fill:#24689b;fill-opacity:1;stroke:#080808;stroke-width:11.179;stroke-linecap:round;stroke-linejoin:round;stroke-dasharray:none;stroke-dashoffset:0;stroke-opacity:1;paint-order:stroke fill markers"
         id="rect4"
         width="88.706955"
         height="146.9875"
         x="41.27203"
         y="-52.507465"
         ry="2.3646815"
         rx="1.5445035"
         inkscape:label="rect4"
         transform="rotate(-20.748779)" /><rect
         style="display:inline;opacity:1;fill:#387bad;fill-opacity:1;stroke:#080808;stroke-width:11.1787;stroke-linecap:round;stroke-linejoin:round;stroke-dasharray:none;stroke-dashoffset:0;stroke-opacity:1;paint-order:stroke fill markers"
         id="rect2"
         width="88.706955"
         height="146.9875"
         x="107.72656"
         y="-94.429764"
         ry="2.3646817"
         rx="1.5445033"
         inkscape:label="rect4" /><rect
         style="display:inline;opacity:1;fill:#478cbf;fill-opacity:1;stroke:#080808;stroke-width:11.1787;stroke-linecap:round;stroke-linejoin:round;stroke-dasharray:none;stroke-dashoffset:0;stroke-opacity:1;paint-order:stroke fill markers"
         id="rect3"
         width="88.70694"
         height="146.98752"
         x="136.30313"
         y="-153.38631"
         ry="2.3646822"
         rx="1.5445031"
         inkscape:label="rect4"
         transform="rotate(20.748797)" /><rect
         style="display:inline;opacity:1;fill:#478cbf;fill-opacity:1;stroke:#080808;stroke-width:11.1787;stroke-linecap:round;stroke-linejoin:round;stroke-dasharray:none;stroke-dashoffset:0;stroke-opacity:1;paint-order:stroke fill markers"
         id="rect13"
         width="88.70694"
         height="146.98752"
         x="171.6442"
         y="-200.01045"
         ry="2.3646822"
         rx="1.5445031"
         inkscape:label="rect4"
         transform="rotate(30.887644)" /></g></g></svg>
