<?xml version="1.0" encoding="UTF-8" standalone="no"?>
<!-- Created with Inkscape (http://www.inkscape.org/) -->

<svg
   width="635"
   height="889"
   viewBox="0 0 635 889"
   version="1.1"
   id="svg1"
   xml:space="preserve"
   inkscape:version="1.3.2 (091e20e, 2023-11-25)"
   sodipodi:docname="card_example.svg"
   xmlns:inkscape="http://www.inkscape.org/namespaces/inkscape"
   xmlns:sodipodi="http://sodipodi.sourceforge.net/DTD/sodipodi-0.dtd"
   xmlns="http://www.w3.org/2000/svg"
   xmlns:svg="http://www.w3.org/2000/svg"><sodipodi:namedview
     id="namedview1"
     pagecolor="#ffffff"
     bordercolor="#000000"
     borderopacity="0.25"
     inkscape:showpageshadow="2"
     inkscape:pageopacity="0.0"
     inkscape:pagecheckerboard="0"
     inkscape:deskcolor="#d1d1d1"
     inkscape:document-units="mm"
     inkscape:zoom="0.96537557"
     inkscape:cx="210.79879"
     inkscape:cy="442.83283"
     inkscape:window-width="1848"
     inkscape:window-height="1322"
     inkscape:window-x="2706"
     inkscape:window-y="83"
     inkscape:window-maximized="0"
     inkscape:current-layer="layer2"
     inkscape:clip-to-page="false"
     inkscape:lockguides="false" /><defs
     id="defs1"><linearGradient
       id="swatch1"
       inkscape:swatch="solid"><stop
         style="stop-color:#3bc32f;stop-opacity:1;"
         offset="0"
         id="stop1" /></linearGradient></defs><g
     inkscape:label="template"
     inkscape:groupmode="layer"
     id="layer1"
     style="display:none"><g
       id="g1"
       transform="matrix(3.0057364,0,0,3.0057364,19.932096,38.725586)"><polygon
         fill="#929497"
         points="0,270 198,270 198,0 0,0 "
         id="polygon103" /><g
         id="g104">
	<path
   fill="#ffffff"
   d="m 9,252 c 0,4.971 4.029,9 9,9 h 162 c 4.971,0 9,-4.029 9,-9 V 18 c 0,-4.971 -4.029,-9 -9,-9 H 18 c -4.971,0 -9,4.029 -9,9 z"
   id="path103" />
	<path
   fill="none"
   stroke="#ec1e28"
   d="m 9,252 c 0,4.971 4.029,9 9,9 h 162 c 4.971,0 9,-4.029 9,-9 V 18 c 0,-4.971 -4.029,-9 -9,-9 H 18 c -4.971,0 -9,4.029 -9,9 z"
   id="path104" />
</g><g
         id="g105">
	<path
   fill="none"
   stroke="#2ba6de"
   stroke-dasharray="1.44"
   d="m 18.13,21.906 c 0,-2.156 1.714,-3.9 3.828,-3.9 h 154.084 c 2.114,0 3.828,1.744 3.828,3.9 v 226.188 c 0,2.154 -1.714,3.9 -3.828,3.9 H 21.958 c -2.114,0 -3.828,-1.746 -3.828,-3.9 z"
   id="path105" />
</g><rect
         x="20.999001"
         y="195.74001"
         fill="#e6e7e8"
         width="157"
         height="54.333"
         id="rect105" /><rect
         x="20.997999"
         y="20.666"
         fill="#e6e7e8"
         width="157"
         height="16.243999"
         id="rect106" /><text
         transform="translate(133.9561,47.0107)"
         id="text125"><tspan
           x="0"
           y="0"
           fill="#231f20"
           font-family="Arial-Black"
           font-size="6px"
           id="tspan106">Safe Zone</tspan><tspan
           x="-108.68"
           y="6.5999999"
           fill="#2ba6de"
           font-family="Arial-BoldMT"
           font-size="6px"
           id="tspan107">DO NOT place ANY important text/images beyond</tspan><tspan
           x="-95.651001"
           y="13.2"
           fill="#2ba6de"
           font-family="Arial-BoldMT"
           font-size="6px"
           id="tspan108">this dotted line. Anything past the dotted line</tspan><tspan
           x="-101.672"
           y="19.799999"
           fill="#2ba6de"
           font-family="Arial-BoldMT"
           font-size="6px"
           id="tspan109">has the potential for being trimmed. This line is</tspan><tspan
           x="-108.677"
           y="26.4"
           fill="#2ba6de"
           font-family="Arial-BoldMT"
           font-size="6px"
           id="tspan110">provided to prevent trimming of your text/images.</tspan><tspan
           x="2.013"
           y="39.601002"
           fill="#231f20"
           font-family="Arial-Black"
           font-size="6px"
           id="tspan111">Trim Line</tspan><tspan
           x="-95.341003"
           y="46.200001"
           fill="#ec1e28"
           font-family="Arial-BoldMT"
           font-size="6px"
           id="tspan112">This is the actual cutline of your final design.</tspan><tspan
           x="-3.9990001"
           y="59.400002"
           fill="#231f20"
           font-family="Arial-Black"
           font-size="6px"
           id="tspan113">Bleed Zone</tspan><tspan
           x="-88.349998"
           y="66"
           fill="#929497"
           font-family="Arial-BoldMT"
           font-size="6px"
           id="tspan114">Extend any card artwork/color to the edge</tspan><tspan
           x="-98.668999"
           y="72.600998"
           fill="#929497"
           font-family="Arial-BoldMT"
           font-size="6px"
           id="tspan115">(covering the gray) if you want your design to</tspan><tspan
           x="-109.67"
           y="79.199997"
           fill="#929497"
           font-family="Arial-BoldMT"
           font-size="6px"
           id="tspan116">extend to the edge on the final print. We require a</tspan><tspan
           x="-108.029"
           y="85.801003"
           fill="#929497"
           font-family="Arial-BoldMT"
           font-size="6px"
           id="tspan117">bleed of 1/8”. Please use the Safe Zone guideline</tspan><tspan
           x="-97.688004"
           y="92.400002"
           fill="#929497"
           font-family="Arial-BoldMT"
           font-size="6px"
           id="tspan118">to prevent trimming of essential text/images.</tspan><tspan
           x="-94.022003"
           y="99"
           fill="#929497"
           font-family="Arial-BoldMT"
           font-size="6px"
           id="tspan119">The bleed is to make sure your design/color</tspan><tspan
           x="-57.337002"
           y="105.601"
           fill="#929497"
           font-family="Arial-BoldMT"
           font-size="6px"
           id="tspan120">extends to the edge of the card.</tspan><tspan
           x="-6.322"
           y="118.801"
           fill="#231f20"
           font-family="Arial-Black"
           font-size="6px"
           id="tspan121">Border Area</tspan><tspan
           x="-88.345001"
           y="125.4"
           fill="#f9a51a"
           font-family="Arial-BoldMT"
           font-size="6px"
           id="tspan122">This is the minimum recommended border</tspan><tspan
           x="-89.678001"
           y="132.00101"
           fill="#f9a51a"
           font-family="Arial-BoldMT"
           font-size="6px"
           id="tspan123">area. If you want a border around the edge</tspan><tspan
           x="-77.666"
           y="138.601"
           fill="#f9a51a"
           font-family="Arial-BoldMT"
           font-size="6px"
           id="tspan124">of your card, you will want it to extend</tspan><tspan
           x="-102.665"
           y="145.2"
           fill="#f9a51a"
           font-family="Arial-BoldMT"
           font-size="6px"
           id="tspan125">the width of this guide on each side of the card.</tspan></text><text
         transform="translate(23.1729,26.7686)"
         id="text127"><tspan
           x="0"
           y="0"
           fill="#231f20"
           font-family="Arial-BoldMT"
           font-size="7px"
           id="tspan126">2.5” x 3.5” POKER CARD TEMPLATE</tspan><tspan
           x="0"
           y="8"
           fill="#231f20"
           font-family="Arial-BoldMT"
           font-size="7px"
           id="tspan127">www.thegamecrafter.com</tspan></text><rect
         x="170.99899"
         y="166.687"
         fill="#f9a51a"
         width="27.000999"
         height="26.084"
         id="rect127" /><line
         fill="none"
         stroke="#f9a51a"
         x1="127.714"
         y1="167.186"
         x2="191.993"
         y2="167.186"
         id="line127" /><line
         fill="none"
         stroke="#ec1e28"
         x1="136.74899"
         y1="87.761002"
         x2="189.22"
         y2="87.761002"
         id="line128" /><line
         fill="none"
         stroke="#929497"
         x1="130.24899"
         y1="107.679"
         x2="192.74899"
         y2="107.679"
         id="line129" /><line
         fill="none"
         stroke="#2ba6de"
         stroke-dasharray="1.44"
         x1="134.47"
         y1="48.011002"
         x2="180"
         y2="48.011002"
         id="line130" /><g
         id="g130">
	<path
   fill="#ec1e28"
   d="m 134.481,41.076 c 0,0.411 -0.187,0.812 -0.559,1.202 l -0.059,0.059 -3.259,3.434 c -0.692,0.728 -1.282,1.289 -1.769,1.687 -0.487,0.398 -0.831,0.597 -1.031,0.597 -0.211,0 -0.473,-0.1 -0.786,-0.298 -0.312,-0.199 -0.515,-0.403 -0.606,-0.614 -0.077,-0.177 -0.15,-0.549 -0.219,-1.118 -0.069,-0.569 -0.103,-1.188 -0.103,-1.852 0,-0.362 0.151,-0.697 0.453,-1.005 0.303,-0.308 0.637,-0.461 1.002,-0.461 0.349,0 0.556,0.318 0.622,0.954 0.008,0.074 0.013,0.129 0.017,0.164 0.056,0.488 0.121,0.829 0.194,1.023 0.074,0.192 0.175,0.289 0.301,0.289 0.053,0 0.151,-0.057 0.296,-0.171 0.144,-0.114 0.316,-0.27 0.517,-0.467 l 3.349,-3.317 c 0.281,-0.28 0.532,-0.493 0.754,-0.638 0.222,-0.145 0.409,-0.216 0.564,-0.216 0.116,0 0.198,0.044 0.248,0.131 0.049,0.088 0.073,0.236 0.073,0.443 v 0.174 z"
   id="path130" />
</g><g
         id="g131">
	<path
   fill="#ec1e28"
   d="m 135.696,80.052 c 0,0.411 -0.187,0.812 -0.559,1.202 l -0.059,0.059 -3.259,3.433 c -0.692,0.728 -1.282,1.29 -1.769,1.688 -0.487,0.397 -0.831,0.596 -1.031,0.596 -0.211,0 -0.473,-0.099 -0.786,-0.298 -0.312,-0.198 -0.515,-0.403 -0.606,-0.614 -0.077,-0.176 -0.15,-0.549 -0.219,-1.118 -0.069,-0.569 -0.103,-1.187 -0.103,-1.851 0,-0.362 0.151,-0.697 0.453,-1.005 0.303,-0.308 0.637,-0.461 1.002,-0.461 0.349,0 0.556,0.317 0.622,0.954 0.008,0.074 0.013,0.128 0.017,0.164 0.056,0.488 0.121,0.829 0.194,1.022 0.074,0.193 0.175,0.29 0.301,0.29 0.053,0 0.151,-0.057 0.296,-0.171 0.144,-0.114 0.316,-0.27 0.517,-0.468 l 3.349,-3.316 c 0.281,-0.281 0.532,-0.493 0.754,-0.638 0.222,-0.145 0.409,-0.217 0.564,-0.217 0.116,0 0.198,0.045 0.248,0.132 0.049,0.088 0.073,0.236 0.073,0.443 v 0.174 z"
   id="path131" />
</g><g
         id="g132">
	<path
   fill="#ec1e28"
   d="m 130.196,99.452 c 0,0.411 -0.187,0.812 -0.559,1.202 l -0.059,0.059 -3.259,3.433 c -0.692,0.728 -1.282,1.29 -1.769,1.688 -0.487,0.397 -0.831,0.596 -1.031,0.596 -0.211,0 -0.473,-0.099 -0.786,-0.298 -0.312,-0.198 -0.515,-0.403 -0.606,-0.614 -0.077,-0.176 -0.15,-0.548 -0.219,-1.118 -0.068,-0.569 -0.103,-1.187 -0.103,-1.851 0,-0.362 0.151,-0.697 0.453,-1.005 0.303,-0.308 0.637,-0.461 1.002,-0.461 0.349,0 0.556,0.318 0.622,0.954 0.008,0.074 0.013,0.128 0.017,0.164 0.056,0.488 0.121,0.829 0.194,1.022 0.074,0.193 0.175,0.29 0.301,0.29 0.053,0 0.151,-0.057 0.296,-0.171 0.144,-0.114 0.316,-0.27 0.517,-0.468 l 3.349,-3.316 c 0.281,-0.281 0.532,-0.493 0.754,-0.639 0.222,-0.144 0.409,-0.216 0.564,-0.216 0.116,0 0.198,0.045 0.248,0.132 0.049,0.088 0.073,0.236 0.073,0.443 v 0.174 z"
   id="path132" />
</g><g
         id="g133">
	<path
   fill="#ec1e28"
   d="m 127.481,160.052 c 0,0.412 -0.187,0.812 -0.559,1.203 l -0.059,0.06 -3.259,3.432 c -0.692,0.728 -1.282,1.29 -1.769,1.688 -0.487,0.398 -0.831,0.595 -1.031,0.595 -0.211,0 -0.473,-0.1 -0.786,-0.297 -0.312,-0.199 -0.515,-0.403 -0.606,-0.614 -0.077,-0.176 -0.15,-0.549 -0.219,-1.117 -0.068,-0.57 -0.103,-1.188 -0.103,-1.853 0,-0.361 0.151,-0.697 0.453,-1.003 0.303,-0.31 0.637,-0.462 1.002,-0.462 0.349,0 0.556,0.317 0.622,0.954 0.008,0.074 0.013,0.128 0.017,0.164 0.056,0.487 0.121,0.829 0.194,1.023 0.074,0.192 0.175,0.288 0.301,0.288 0.053,0 0.151,-0.056 0.296,-0.172 0.144,-0.112 0.316,-0.27 0.517,-0.465 l 3.349,-3.318 c 0.281,-0.281 0.532,-0.494 0.754,-0.637 0.222,-0.145 0.409,-0.216 0.564,-0.216 0.116,0 0.198,0.042 0.248,0.13 0.049,0.088 0.073,0.236 0.073,0.443 v 0.174 z"
   id="path133" />
</g><text
         transform="translate(117.4248,206.998)"
         id="text138"><tspan
           x="0"
           y="0"
           fill="#231f20"
           font-family="Arial-Black"
           font-size="6px"
           id="tspan133">PLEASE NOTE:</tspan><tspan
           x="-35.344002"
           y="7.1999998"
           fill="#231f20"
           font-family="Arial-Black"
           font-size="6px"
           id="tspan134">Remove this layer before</tspan><tspan
           x="-32.007"
           y="14.4"
           fill="#231f20"
           font-family="Arial-Black"
           font-size="6px"
           id="tspan135">sending the file to print.</tspan><tspan
           x="-39.34"
           y="21.6"
           fill="#231f20"
           font-family="Arial-Black"
           font-size="6px"
           id="tspan136">This layer is provided as a</tspan><tspan
           x="-6.6799998"
           y="28.799999"
           fill="#231f20"
           font-family="Arial-Black"
           font-size="6px"
           id="tspan137">guide for set up.</tspan><tspan
           x="-43.341999"
           y="36"
           fill="#231f20"
           font-family="Arial-Black"
           font-size="6px"
           id="tspan138">DELETE LAYER AFTER USE.</tspan></text><g
         id="g138">
	<path
   fill="#ec1e28"
   d="m 117.389,201.307 c 0,0.41 -0.187,0.812 -0.559,1.201 l -0.059,0.059 -3.258,3.433 c -0.692,0.727 -1.282,1.289 -1.769,1.688 -0.487,0.396 -0.831,0.595 -1.031,0.595 -0.211,0 -0.473,-0.099 -0.786,-0.298 -0.312,-0.197 -0.515,-0.403 -0.606,-0.613 -0.077,-0.177 -0.15,-0.55 -0.219,-1.12 -0.068,-0.567 -0.103,-1.185 -0.103,-1.849 0,-0.364 0.151,-0.697 0.453,-1.006 0.303,-0.307 0.637,-0.461 1.002,-0.461 0.349,0 0.556,0.317 0.622,0.955 0.008,0.072 0.013,0.128 0.017,0.163 0.056,0.489 0.121,0.829 0.194,1.021 0.074,0.194 0.175,0.291 0.301,0.291 0.053,0 0.151,-0.058 0.296,-0.171 0.144,-0.115 0.316,-0.27 0.517,-0.467 l 3.349,-3.317 c 0.281,-0.28 0.532,-0.494 0.754,-0.638 0.222,-0.145 0.409,-0.218 0.564,-0.218 0.116,0 0.198,0.046 0.248,0.133 0.049,0.089 0.073,0.236 0.073,0.444 z"
   id="path138" />
</g><g
         id="g307">
	<circle
   fill-rule="evenodd"
   clip-rule="evenodd"
   cx="47.599998"
   cy="222.382"
   r="23.98"
   id="circle138" />
	<circle
   fill-rule="evenodd"
   clip-rule="evenodd"
   fill="#b7d333"
   cx="47.617001"
   cy="222.51401"
   r="21.799999"
   id="circle139" />
	<g
   id="g142">
		<path
   d="m 42.949,217.761 c -0.302,2.671 -0.527,4.818 -0.677,6.438 l -0.994,0.044 c 0.015,-0.054 0.021,-0.115 0.023,-0.183 0.002,-0.121 -0.043,-0.281 -0.134,-0.479 -0.092,-0.197 -0.144,-0.323 -0.156,-0.377 -0.257,0.037 -0.504,0.216 -0.738,0.533 -0.236,0.321 -0.449,0.481 -0.638,0.479 -0.107,-0.005 -0.229,-0.033 -0.363,-0.088 -0.178,0.118 -0.408,0.169 -0.692,0.151 -0.256,-0.046 -0.506,-0.083 -0.748,-0.114 -0.009,-0.34 -0.341,-0.635 -0.999,-0.89 0.003,-0.136 -0.065,-0.336 -0.203,-0.603 -0.138,-0.266 -0.205,-0.452 -0.202,-0.561 0.001,-0.121 0.05,-0.222 0.146,-0.302 -0.014,-0.04 -0.125,-0.293 -0.332,-0.757 -0.143,-0.341 -0.212,-0.632 -0.209,-0.874 0.004,-0.189 0.047,-0.364 0.132,-0.525 -0.116,-1.151 -0.167,-2.14 -0.152,-2.963 0.021,-1.271 0.202,-2.438 0.546,-3.501 -0.024,-0.163 -0.035,-0.325 -0.033,-0.486 0.016,-0.852 0.31,-1.441 0.882,-1.771 l 0.005,-0.263 c 0.566,-0.722 1.312,-1.242 2.236,-1.564 0.554,0.132 1.104,0.255 1.657,0.374 0.618,0.212 1.045,0.578 1.278,1.096 0.188,0.112 0.279,0.337 0.273,0.673 -0.006,0.38 0.037,0.624 0.129,0.733 l -0.104,0.119 c 0.108,0.8 0.161,1.287 0.158,1.463 -0.009,0.515 -0.144,0.877 -0.403,1.089 -0.095,-10e-4 -0.344,-0.086 -0.746,-0.256 -0.097,0.093 -0.199,0.139 -0.307,0.137 -0.055,-10e-4 -0.152,-0.031 -0.293,-0.087 -0.141,-0.057 -0.26,-0.084 -0.354,-0.086 -0.067,-0.001 -0.137,0.011 -0.203,0.036 -0.009,-1.067 0.024,-1.864 0.101,-2.392 -0.106,-0.068 -0.215,-0.229 -0.325,-0.471 -0.112,-0.246 -0.255,-0.384 -0.429,-0.414 -0.111,0.135 -0.16,0.222 -0.147,0.263 l -0.363,-0.128 c -0.33,0.359 -0.55,0.984 -0.659,1.874 -0.112,1.026 -0.252,1.705 -0.42,2.041 0.146,0.151 0.217,0.362 0.211,0.632 -0.001,0.095 -0.017,0.251 -0.048,0.465 -0.032,0.217 -0.047,0.379 -0.048,0.487 -0.003,0.122 0.008,0.23 0.034,0.325 l -0.247,0.239 c 0.1,0.461 0.157,1.044 0.173,1.748 -0.01,0.594 -0.014,1.188 -0.01,1.783 -0.014,0 -0.129,0.004 -0.345,0.016 -0.135,-0.004 -0.231,0.042 -0.286,0.136 0.081,-0.012 0.155,-0.019 0.223,-0.016 0.297,0.004 0.53,0.215 0.698,0.63 0.17,0.415 0.314,0.624 0.437,0.627 0.135,10e-4 0.319,-0.124 0.554,-0.379 0.398,-0.425 0.605,-1.01 0.618,-1.752 0.007,-0.365 -0.034,-0.758 -0.122,-1.178 -0.096,0.051 -0.146,0.187 -0.148,0.402 -0.217,-0.003 -0.354,0.042 -0.409,0.134 -0.093,-0.028 -0.133,-0.104 -0.117,-0.223 0.017,-0.176 0.024,-0.271 0.024,-0.285 0.164,-0.05 0.245,-0.124 0.248,-0.219 0,-0.04 -0.028,-0.116 -0.088,-0.225 -0.059,-0.108 -0.087,-0.196 -0.087,-0.266 0.001,-0.054 0.017,-0.106 0.044,-0.161 l 0.095,-0.79 c 0.296,0.088 0.937,0.125 1.925,0.116 -0.029,0.065 0.011,0.155 0.117,0.264 0.096,-0.093 0.197,-0.14 0.306,-0.136 0.081,0.002 0.202,0.037 0.362,0.107 0.162,0.074 0.275,0.109 0.343,0.111 z"
   id="path139" />
		<path
   d="m 50.518,224.743 c -0.188,-0.084 -0.391,-0.127 -0.606,-0.132 -0.189,-0.003 -0.448,0.033 -0.773,0.109 -0.366,0.074 -0.617,0.116 -0.752,0.129 -0.145,-0.286 -0.245,-0.68 -0.304,-1.182 -0.109,-0.731 -0.178,-1.145 -0.203,-1.241 0.043,-0.08 0.064,-0.147 0.064,-0.2 0.003,-0.149 -0.114,-0.283 -0.348,-0.403 -0.235,-0.117 -0.352,-0.212 -0.35,-0.279 10e-4,-0.08 0.138,-0.199 0.41,-0.357 -0.065,-0.081 -0.114,-0.249 -0.144,-0.498 -0.028,-0.251 -0.091,-0.418 -0.184,-0.501 -0.165,0.146 -0.434,0.24 -0.806,0.28 -0.373,0.042 -0.62,0.102 -0.743,0.18 0.009,1.055 -0.165,1.763 -0.522,2.12 -0.188,-0.043 -0.333,0.029 -0.43,0.217 -0.14,0.228 -0.257,0.36 -0.352,0.399 l 0.118,0.144 c -0.109,0.093 -0.286,0.131 -0.528,0.113 -0.379,-0.021 -0.581,-0.03 -0.608,-0.03 l -0.114,-0.368 1.32,-10.947 c 0.013,-0.689 0.047,-1.158 0.104,-1.399 -0.017,-0.609 0.126,-0.984 0.425,-1.128 0.188,0.124 0.424,0.189 0.707,0.194 0.23,0.005 0.589,-0.043 1.076,-0.145 0.49,-0.099 0.828,-0.148 1.018,-0.146 0.662,0.013 0.95,0.489 0.868,1.436 -0.066,0.756 0.051,1.752 0.354,2.987 0.315,1.331 0.468,2.327 0.457,2.99 -0.004,0.2 0.062,0.622 0.046,0.824 -0.287,0.156 -0.652,0.253 -1.1,0.285 -0.393,0.021 -0.792,0.042 -1.197,0.06 -0.104,-1.028 -0.286,-2.269 -0.391,-3.284 -0.128,-1.219 -0.286,-2.221 -0.477,-3.01 l -0.626,5.79 c -0.048,0.5 0.178,0.754 0.678,0.763 0.162,0.002 0.317,-0.035 0.468,-0.114 0.123,-0.038 0.291,0.052 0.503,0.272 -0.008,0.419 0.076,0.67 0.251,0.754 0.219,-0.145 0.505,-0.281 0.858,-0.412 0.312,-0.115 0.62,-0.225 0.919,-0.328 0.17,0.233 0.28,0.579 0.327,1.04 0.056,0.65 0.098,1.029 0.122,1.138 0.022,0.258 0.128,0.813 0.315,1.669 0.138,0.677 0.203,1.226 0.196,1.646 -10e-4,0.202 -0.018,0.39 -0.046,0.565 z"
   id="path140" />
		<path
   d="m 59.854,215.086 c -0.015,0.041 -0.019,0.277 -0.012,0.71 -0.007,0.351 -0.051,0.614 -0.135,0.788 -0.101,0.27 -0.153,0.655 -0.162,1.153 -0.003,0.109 0.002,0.278 0.012,0.508 -0.005,0.23 -0.007,0.399 -0.008,0.507 -0.016,0.851 -0.161,1.47 -0.439,1.857 0.024,0.219 0.034,0.435 0.032,0.65 -0.012,0.676 -0.244,1.585 -0.696,2.727 -0.122,0.039 -0.225,0.057 -0.307,0.056 -0.162,-0.004 -0.277,-0.098 -0.35,-0.281 -0.071,-0.183 -0.139,-0.356 -0.203,-0.52 0.044,-1.039 0.022,-2.555 -0.065,-4.544 l 0.123,-0.12 c -0.089,-0.352 -0.128,-0.744 -0.121,-1.177 0.005,-0.312 0.045,-0.764 0.114,-1.357 0.071,-0.595 0.108,-1.04 0.113,-1.337 0.005,-0.189 0,-0.371 -0.009,-0.547 -0.467,1.114 -0.796,3 -0.989,5.66 l -0.17,0.402 c -0.057,0.136 -0.173,0.208 -0.348,0.219 -0.053,-0.095 -0.106,-0.144 -0.159,-0.145 -0.041,-0.003 -0.113,0.047 -0.216,0.148 -0.104,0.098 -0.189,0.142 -0.256,0.127 l -0.269,0.237 c 0.119,0.152 0.375,0.17 0.771,0.057 0.312,-0.091 0.472,0.027 0.48,0.352 0.009,0.271 -0.065,0.634 -0.222,1.091 -0.157,0.457 -0.236,0.801 -0.24,1.03 -0.003,0.163 0.015,0.325 0.052,0.486 l -1.402,0.221 c -0.131,-0.272 -0.228,-0.73 -0.292,-1.374 -0.062,-0.642 -0.159,-1.101 -0.29,-1.373 0.082,-0.093 0.124,-0.192 0.126,-0.303 0.002,-0.094 -0.035,-0.237 -0.114,-0.427 -0.077,-0.191 -0.122,-0.334 -0.135,-0.43 -0.011,-0.147 -0.058,-0.508 -0.144,-1.076 -0.06,-0.46 -0.088,-0.821 -0.083,-1.075 0.002,-0.137 0.012,-0.258 0.026,-0.366 0.002,-0.095 -0.052,-0.233 -0.155,-0.419 -0.104,-0.184 -0.156,-0.316 -0.154,-0.397 10e-4,-0.067 0.028,-0.127 0.083,-0.181 -0.093,-0.111 -0.13,-0.3 -0.112,-0.569 0.019,-0.271 -0.02,-0.461 -0.111,-0.569 -0.198,0.522 -0.305,1.23 -0.32,2.122 -0.007,1.243 -0.02,1.962 -0.036,2.149 l 0.14,0.125 -0.143,0.119 c 0.099,0.488 0.144,1.111 0.13,1.867 -0.036,1.366 -0.054,2.001 -0.053,1.908 -0.191,0.171 -0.457,0.255 -0.795,0.248 -0.419,-0.006 -0.704,0.03 -0.854,0.107 -0.171,-0.3 -0.253,-0.687 -0.244,-1.159 0.006,-0.365 0.068,-0.81 0.186,-1.336 -0.185,-0.342 -0.271,-0.815 -0.26,-1.425 0.002,-0.148 0.021,-0.431 0.055,-0.851 0.02,-0.336 0.023,-0.588 0.014,-0.749 0.135,-0.065 0.205,-0.138 0.205,-0.22 0.002,-0.054 -0.04,-0.146 -0.127,-0.276 -0.086,-0.128 -0.128,-0.228 -0.127,-0.296 0.002,-0.082 0.057,-0.161 0.166,-0.241 l -0.437,-6.558 c 0.261,-0.171 0.681,-0.252 1.263,-0.241 0.634,0.024 1.068,-0.01 1.299,-0.1 0.042,-0.027 0.089,-0.039 0.143,-0.039 0.056,0.002 0.118,0.032 0.191,0.095 0.074,0.062 0.124,0.094 0.15,0.094 0.054,0 0.103,-0.04 0.145,-0.12 l 0.379,0.373 c 0.127,0.476 0.247,1.396 0.359,2.763 0.114,1.179 0.295,2.068 0.543,2.667 0.331,-1.197 0.604,-2.2 0.821,-3.007 l 0.44,-3.21 3.144,-0.068 c 0.011,0.175 0.05,1.115 0.134,1.658 0.072,0.474 0.107,0.859 0.103,1.156 -0.005,0.339 -0.058,0.642 -0.158,0.91 0.105,0.151 0.157,0.341 0.153,0.569 -0.004,0.233 -0.062,0.419 -0.173,0.567 z"
   id="path141" />
		<path
   d="m 66.305,222.193 v -0.021 c -0.084,0.174 -0.136,0.376 -0.152,0.605 -0.016,0.148 -0.02,0.357 -0.011,0.628 0.008,0.311 0.011,0.527 0.01,0.649 -0.109,-0.002 -0.541,-0.01 -1.297,-0.021 -0.461,-0.008 -0.873,0.031 -1.24,0.121 l -0.378,-0.412 c -0.111,0.105 -0.152,0.192 -0.127,0.261 -0.066,-0.015 -0.378,-0.02 -0.933,-0.016 -0.433,-0.007 -0.756,-0.055 -0.97,-0.139 -0.222,0.228 -0.478,0.222 -0.771,-0.014 -0.106,-0.081 -0.117,-0.221 -0.034,-0.415 0.085,-0.195 0.061,-0.341 -0.072,-0.438 0.021,-0.432 0.079,-1.101 0.176,-2.005 0.095,-0.809 0.146,-1.444 0.153,-1.903 0.01,-0.623 -0.032,-1.218 -0.132,-1.787 0.153,-0.146 0.321,-0.218 0.511,-0.214 0.218,0.002 0.472,0.109 0.766,0.317 0.413,0.288 0.629,0.437 0.642,0.437 l 0.118,0.143 c 0.016,-0.04 0.086,-0.255 0.215,-0.645 0.071,-0.256 0.176,-0.422 0.312,-0.503 l 0.12,0.125 c 0.055,-0.025 0.231,-0.151 0.534,-0.376 0.23,-0.159 0.421,-0.534 0.555,-0.53 0.15,0.001 0.289,0.086 0.422,0.25 0.229,0.124 0.371,0.611 0.442,0.86 0.069,0.253 0.137,0.5 0.201,0.746 -0.609,0.017 -1.11,0 -1.501,-0.047 -0.097,0.147 -0.232,0.169 -0.407,0.064 -0.173,-0.104 -0.301,-0.089 -0.385,0.042 -0.005,0.245 -0.013,0.686 -0.023,1.32 -0.023,0.565 -0.029,1.013 -0.021,1.338 0.004,0.5 0.037,0.96 0.098,1.38 0.107,0.002 0.621,0.012 1.54,0.027 0.634,0.014 1.18,0.07 1.639,0.173 z m 0.043,-9.714 c -0.122,0.012 -0.257,0.016 -0.405,0.014 -0.312,-0.006 -0.724,-0.055 -1.235,-0.144 -0.635,-0.091 -1.019,-0.146 -1.153,-0.161 -0.193,0.28 -0.295,0.678 -0.305,1.191 -0.019,1.108 -0.019,1.588 -0.003,1.439 0.188,0.11 0.279,0.316 0.273,0.613 -0.021,0.405 -0.024,0.616 -0.011,0.629 -0.095,0.038 -0.146,0.173 -0.148,0.402 -0.148,-0.056 -0.302,-0.168 -0.461,-0.333 -0.213,-0.206 -0.326,0.493 -0.311,0.319 l -0.128,0.416 -0.12,-0.123 c -0.109,0.011 -0.294,-0.046 -0.555,-0.173 -0.263,-0.126 -0.445,-0.241 -0.552,-0.354 0.004,-0.216 0.04,-0.337 0.107,-0.363 l -0.258,-0.287 -0.125,0.18 c -0.151,-1.409 -0.114,-4.043 0.072,-5.527 0.513,0.09 1.08,0.147 1.701,0.171 0.419,0.021 1.006,0.031 1.764,0.031 0.865,10e-4 1.488,0.004 1.866,0.01 0.158,0.151 0.237,0.349 0.232,0.593 -0.001,0.149 -0.043,0.389 -0.123,0.718 -0.078,0.331 -0.119,0.576 -0.122,0.739 z"
   id="path142" />
	</g>
	<g
   id="g149">
		<path
   d="m 43.559,234.454 v -0.011 c 0,0.007 -0.034,0.306 -0.104,0.895 -0.035,0.361 -0.122,0.646 -0.262,0.854 l -0.088,-0.071 c -0.165,0.344 -0.388,0.554 -0.671,0.628 -0.136,0.143 -0.332,0.221 -0.587,0.236 -0.151,0.01 -0.501,-0.035 -1.05,-0.132 -0.266,-0.165 -0.41,-0.257 -0.436,-0.274 -0.167,-0.125 -0.247,-0.252 -0.238,-0.382 -0.161,-0.164 -0.388,-0.458 -0.474,-0.825 -0.104,-0.407 -0.166,-0.429 -0.262,-0.572 -0.153,0.113 -0.208,-0.126 -0.297,-0.271 l 0.08,-0.061 c -0.05,-0.036 -0.076,-0.077 -0.079,-0.122 -0.002,-0.032 0.013,-0.079 0.04,-0.143 0.029,-0.062 0.043,-0.109 0.04,-0.142 -0.003,-0.051 -0.033,-0.095 -0.091,-0.129 0.061,-0.32 0.117,-0.8 0.168,-1.438 0.108,-0.059 0.159,-0.17 0.154,-0.338 -0.006,-0.166 0.018,-0.277 0.069,-0.331 0.259,-0.518 0.678,-0.866 1.259,-1.048 0.032,0.004 0.188,0.001 0.468,-0.008 0.191,-0.005 0.336,0.012 0.435,0.052 0.173,-0.031 0.349,0.013 0.521,0.123 0.151,0.115 0.303,0.228 0.452,0.342 0.281,0.305 0.434,0.651 0.456,1.035 0.007,0.127 -10e-4,0.264 -0.024,0.405 -0.208,-0.006 -0.356,0.13 -0.444,0.413 l -0.811,0.076 c -0.086,-0.124 -0.137,-0.289 -0.147,-0.494 -0.005,-0.07 -0.004,-0.174 0,-0.308 0.003,-0.137 0.004,-0.238 0,-0.309 -0.013,-0.212 -0.062,-0.379 -0.15,-0.505 l -0.242,0.141 c -0.1,-0.039 -0.149,-0.097 -0.154,-0.174 -0.002,-0.025 0.002,-0.063 0.011,-0.111 0.01,-0.05 0.014,-0.083 0.013,-0.103 -0.005,-0.083 -0.08,-0.133 -0.225,-0.152 -0.099,0.913 -0.129,1.852 -0.089,2.812 0.025,0.032 0.104,0.053 0.231,0.066 0.104,0.012 0.158,0.045 0.161,0.095 10e-4,0.021 -0.005,0.046 -0.02,0.079 l -0.08,0.062 c 0.044,0.067 0.07,0.164 0.077,0.285 0.003,0.063 0.001,0.162 -0.007,0.295 -0.009,0.133 -0.011,0.231 -0.007,0.293 0.012,0.193 0.06,0.339 0.146,0.438 -0.009,0.141 0.05,0.238 0.172,0.288 0.078,-0.03 0.148,-0.046 0.213,-0.05 0.247,-0.016 0.419,0.12 0.515,0.403 10e-4,0.007 -10e-4,0.055 -0.003,0.146 0.003,0.052 0.028,0.084 0.078,0.101 0.107,-0.064 0.16,-0.18 0.159,-0.347 -0.002,-0.192 0.022,-0.316 0.074,-0.37 -0.014,-0.09 -0.066,-0.219 -0.16,-0.386 -0.094,-0.17 -0.143,-0.301 -0.149,-0.397 -0.006,-0.103 0.025,-0.2 0.091,-0.294 -0.057,-0.018 -0.082,-0.054 -0.078,-0.112 0.003,-0.092 0.004,-0.139 0.004,-0.145 0.44,-0.108 0.888,-0.11 1.342,-0.008 z"
   id="path143" />
		<path
   d="m 47.229,235.206 h -0.01 c -0.048,0.092 -0.062,0.225 -0.046,0.397 0.021,0.244 0.034,0.369 0.034,0.375 -0.036,0.015 -0.087,-0.004 -0.147,-0.054 -0.095,0.035 -0.141,0.095 -0.135,0.178 0,0.013 0.005,0.033 0.015,0.062 0.001,0.035 0.003,0.06 0.004,0.071 0.003,0.065 -0.016,0.114 -0.059,0.147 -0.107,-0.06 -0.25,-0.098 -0.424,-0.115 -0.177,-0.016 -0.344,-0.032 -0.5,-0.046 -0.003,-0.813 -0.112,-1.61 -0.328,-2.387 0,0.006 -0.005,-0.073 -0.015,-0.242 10e-4,-0.12 -0.026,-0.204 -0.081,-0.255 l -0.074,0.066 c -10e-4,-0.012 0.023,-0.034 0.073,-0.07 0.052,-0.036 0.075,-0.072 0.072,-0.108 -10e-4,-0.018 -0.006,-0.035 -0.015,-0.052 l -0.081,-0.059 c -0.139,0.045 -0.202,0.156 -0.192,0.333 0.007,0.12 -0.041,0.204 -0.141,0.251 0.038,0.028 0.059,0.064 0.061,0.104 0.002,0.024 -0.001,0.059 -0.011,0.101 -0.009,0.041 -0.013,0.074 -0.011,0.1 0.003,0.052 0.032,0.096 0.085,0.128 0.003,0.036 0.021,0.358 0.057,0.967 0.022,0.388 0.012,0.717 -0.031,0.987 l 0.008,0.152 c -0.053,-0.002 -0.112,-0.001 -0.178,0.002 -0.074,0.004 -0.183,0.016 -0.322,0.033 -0.139,0.018 -0.243,0.027 -0.31,0.031 -0.274,0.016 -0.467,-0.031 -0.577,-0.138 l -0.116,-3.341 c -0.054,-0.163 -0.089,-0.393 -0.106,-0.685 l -0.036,-0.645 c -0.026,-0.315 -0.067,-0.558 -0.122,-0.728 0.023,-0.116 0.125,-0.18 0.302,-0.188 0.111,-0.007 0.26,0.008 0.449,0.046 0.086,-0.04 0.208,-0.066 0.363,-0.075 0.045,-0.004 0.114,-0.004 0.212,-0.004 0.104,-0.006 0.178,-0.01 0.222,-0.013 0.29,-0.016 0.481,-0.105 0.576,-0.267 0.134,-0.002 0.279,0.041 0.438,0.127 0.156,0.087 0.295,0.134 0.414,0.138 0.315,0.185 0.485,0.492 0.511,0.922 0.006,0.096 -0.032,0.475 -0.112,1.138 l -0.542,0.469 c 0.092,0.17 0.203,0.537 0.332,1.104 0.108,0.476 0.272,0.822 0.494,1.043 z m -1.001,-3.801 0.012,0.008 c 0.01,0.041 0.005,-0.105 -0.015,-0.438 -0.009,-0.161 -0.068,-0.277 -0.177,-0.35 -0.062,0.087 0.009,0.128 -0.021,0.329 -0.028,0.203 -0.147,0.146 -0.218,0.233 -0.186,0 -0.228,0.112 -0.268,-0.064 -0.083,-0.289 -0.155,-0.264 -0.156,-0.269 l -0.079,0.047 c -0.028,0.025 -0.061,0.054 -0.095,0.087 -0.035,0.032 -0.071,0.042 -0.109,0.033 0.002,0.036 -0.016,0.092 -0.052,0.169 -0.037,0.077 -0.055,0.129 -0.053,0.159 0.004,0.055 0.046,0.094 0.131,0.119 -0.016,0.12 -0.02,0.246 -0.013,0.376 0.005,0.071 0.021,0.236 0.052,0.491 0.033,0.201 0.046,0.374 0.04,0.518 0.067,0.002 0.13,0.002 0.189,-0.001 0.261,-0.016 0.429,-0.118 0.507,-0.308 0.026,-0.055 0.057,-0.256 0.089,-0.598 0.029,-0.256 0.107,-0.438 0.236,-0.541 z"
   id="path144" />
		<path
   d="m 51.439,236.504 c -0.106,-0.031 -0.219,-0.042 -0.338,-0.035 -0.104,0.006 -0.243,0.032 -0.418,0.077 -0.2,0.048 -0.335,0.077 -0.408,0.087 -0.09,-0.12 -0.159,-0.29 -0.208,-0.508 -0.087,-0.318 -0.139,-0.498 -0.155,-0.539 0.021,-0.036 0.03,-0.067 0.028,-0.092 -0.004,-0.065 -0.072,-0.119 -0.204,-0.163 -0.134,-0.042 -0.2,-0.08 -0.201,-0.109 -0.002,-0.036 0.067,-0.093 0.213,-0.174 -0.04,-0.033 -0.071,-0.104 -0.097,-0.215 -0.024,-0.108 -0.062,-0.179 -0.118,-0.212 -0.085,0.071 -0.229,0.123 -0.431,0.156 -0.203,0.031 -0.336,0.067 -0.402,0.108 0.043,0.463 0,1.278 -0.183,1.45 -0.104,-0.012 -0.18,0.024 -0.228,0.113 -0.068,0.104 -0.128,0.168 -0.179,0.189 l 0.07,0.058 c -0.058,0.047 -0.152,0.069 -0.285,0.071 -0.208,0.006 -0.319,0.009 -0.334,0.01 l -0.076,-0.159 0.312,-5.369 c -0.017,-0.305 -0.015,-0.511 0.008,-0.619 -0.03,-0.268 0.034,-0.439 0.193,-0.515 0.107,0.048 0.237,0.066 0.395,0.058 0.125,-0.007 0.321,-0.041 0.584,-0.105 0.265,-0.062 0.448,-0.097 0.553,-0.104 0.362,-0.021 0.537,0.178 0.524,0.598 -0.011,0.335 0.089,0.769 0.299,1.302 0.22,0.572 0.337,1.006 0.354,1.299 0.006,0.089 0.125,0.279 0.123,0.369 -0.152,0.08 -0.351,0.136 -0.593,0.168 -0.215,0.025 -0.432,0.051 -0.654,0.073 -0.093,-0.448 -0.304,-0.993 -0.396,-1.438 -0.112,-0.531 -0.235,-0.966 -0.365,-1.308 l -0.142,2.576 c -0.009,0.222 0.124,0.324 0.397,0.309 0.089,-0.005 0.174,-0.028 0.253,-0.068 0.066,-0.021 0.16,0.012 0.284,0.1 0.011,0.186 0.065,0.294 0.164,0.323 0.115,-0.072 0.267,-0.145 0.456,-0.215 0.167,-0.063 0.331,-0.124 0.491,-0.181 0.103,0.096 0.173,0.244 0.217,0.444 0.053,0.285 0.088,0.449 0.105,0.497 0.021,0.112 0.099,0.354 0.231,0.723 0.1,0.293 0.154,0.532 0.165,0.717 0.007,0.089 0.005,0.173 -0.004,0.253 z"
   id="path145" />
		<path
   d="m 54.508,230.41 h 0.011 c -0.089,0.131 -0.202,0.155 -0.341,0.074 -0.03,-0.006 -0.163,0.003 -0.4,0.022 -0.199,0.012 -0.345,0.001 -0.437,-0.029 -0.021,0.003 -0.066,0.024 -0.13,0.066 -0.064,0.044 -0.11,0.064 -0.142,0.066 -0.043,0.004 -0.068,-0.035 -0.073,-0.112 -0.001,-0.011 -0.004,-0.062 -0.008,-0.152 -0.004,-0.059 -0.033,-0.1 -0.086,-0.12 l -0.139,0.107 c -0.043,0.032 -0.063,0.065 -0.061,0.102 0.001,0.029 0.026,0.071 0.074,0.126 0.047,0.054 0.075,0.093 0.084,0.115 10e-4,0.019 0.018,0.287 0.047,0.806 0.011,0.33 0.072,0.592 0.181,0.787 0.026,-0.03 0.095,-0.048 0.202,-0.05 0.107,-0.004 0.179,-0.028 0.214,-0.071 0.07,0.061 0.188,0.065 0.352,0.011 0.165,-0.056 0.283,-0.037 0.355,0.056 l -0.021,0.791 c -0.067,-0.009 -0.167,-0.042 -0.296,-0.099 -0.038,0.114 -0.112,0.188 -0.221,0.218 -0.045,0.016 -0.171,0.027 -0.378,0.04 0.006,-0.036 -0.026,-0.073 -0.097,-0.11 -0.201,0.096 -0.277,0.324 -0.228,0.686 0.006,-0.037 0.014,0.026 0.023,0.188 0.006,0.101 -0.016,0.174 -0.065,0.219 -0.126,0.019 -0.285,-0.009 -0.479,-0.084 -0.192,-0.075 -0.332,-0.111 -0.413,-0.106 -0.036,0.002 -0.07,0.007 -0.1,0.015 l -0.208,0.064 -0.333,-3.613 -0.039,-0.688 c 0.275,-0.093 0.619,-0.152 1.026,-0.176 0.319,-0.019 0.736,-0.016 1.25,0.008 0.033,-0.067 0.094,0.021 0.169,0.017 0.036,-0.002 0.092,0.003 0.167,0.013 0.075,0.011 0.132,0.015 0.169,0.013 0.044,-0.002 0.084,-0.011 0.12,-0.025 l 0.053,-0.057 c 0.151,0.045 0.23,0.125 0.237,0.236 0.003,0.049 -0.012,0.131 -0.043,0.245 -0.029,0.116 -0.043,0.205 -0.04,0.264 0.006,0.049 0.019,0.097 0.044,0.137 z m -1.3,6.031 c -0.079,0.041 -0.201,0.064 -0.364,0.075 -0.215,0.013 -0.344,0.023 -0.389,0.031 -0.023,-0.022 -0.052,-0.004 -0.1,-0.192 -0.03,-0.124 -0.108,-0.183 -0.233,-0.174 -0.03,10e-4 -0.066,0.005 -0.111,0.014 l -0.2,0.013 -0.106,-1.83 c 0.109,-0.053 0.245,-0.085 0.407,-0.095 0.156,-0.009 0.295,0.007 0.415,0.046 -0.002,0.068 0.092,0.097 0.284,0.083 l 0.212,-0.013 c 0.125,0.515 0.203,1.443 0.185,2.042 z"
   id="path146" />
		<path
   d="m 58.953,230.567 0.012,0.008 c -0.105,-0.007 -0.44,0.016 -0.698,0.049 -0.222,0.025 -0.389,0.029 -0.501,0.012 -0.107,0.072 -0.147,0.17 -0.117,0.293 l 0.068,0.041 c -0.057,0.053 -0.076,0.091 -0.059,0.121 l 0.059,0.059 c -0.013,1.061 -0.016,1.646 -0.009,1.76 0.016,0.28 0.049,0.526 0.098,0.74 -0.044,0.134 -0.061,0.287 -0.051,0.46 0.007,0.112 0.033,0.291 0.081,0.538 0.048,0.245 0.111,1.052 0.119,1.178 0.005,0.094 0.004,0.186 -0.007,0.269 -0.103,0.042 -0.212,0.066 -0.33,0.074 -0.2,0.011 -0.415,-0.03 -0.645,-0.125 -0.027,0.025 -0.059,0.053 -0.095,0.082 -0.035,0.029 -0.045,0.062 -0.027,0.097 -0.073,0.021 -0.176,-0.009 -0.308,-0.091 -0.069,-1.074 -0.261,-3.26 -0.545,-5.47 -0.101,0.091 -0.284,0.016 -0.477,0.04 -0.229,0.024 -0.453,-0.011 -0.54,0.03 -0.111,-0.119 -0.087,-0.154 -0.098,-0.351 -0.012,-0.19 -0.073,-0.661 -0.024,-0.857 0.011,-0.043 0.426,-0.019 0.67,-0.039 0.333,-0.02 0.407,0.061 0.429,0.059 0.027,-0.043 0.189,-0.021 0.308,-0.029 0.077,0.037 0.16,-0.034 0.162,0.021 0.003,0.035 0,0.261 -0.024,0.325 -0.026,0.065 -0.039,0.112 -0.037,0.142 0.005,0.071 0.056,-0.033 0.177,0.008 0.134,-0.004 0.271,-0.008 0.411,-0.016 0.158,0.015 0.338,-0.042 0.324,0.091 0.026,-0.038 0.044,0.028 0.269,-0.062 0.167,-0.076 0.269,-0.271 0.236,-0.405 -0.019,-0.073 0.083,-0.122 0.02,-0.087 0.08,-0.045 0.007,-0.015 0.095,-0.049 0.277,0.026 0.431,-0.003 0.482,-0.005 0.111,-0.007 0.389,0.064 0.467,0.024 0.058,0.104 0.087,0.431 0.091,0.61 0.008,0.284 0.013,0.437 0.014,0.455 z"
   id="path147" />
		<path
   d="m 62.556,234.3 -0.002,-0.009 c -0.039,0.079 -0.061,0.171 -0.062,0.272 -0.005,0.065 0.001,0.158 0.016,0.278 0.016,0.136 0.024,0.23 0.028,0.285 -0.061,0.003 -0.298,0.016 -0.713,0.042 -0.251,0.014 -0.476,0.047 -0.674,0.102 l -0.222,-0.168 c -0.056,0.052 -0.075,0.093 -0.059,0.121 -0.037,-0.004 -0.209,0.006 -0.512,0.029 -0.237,0.015 -0.416,0.006 -0.538,-0.022 -0.111,0.107 -0.252,0.116 -0.421,0.024 -0.061,-0.031 -0.072,-0.093 -0.033,-0.183 0.039,-0.089 0.021,-0.152 -0.057,-0.189 -0.002,-0.19 0.006,-0.487 0.027,-0.89 0.024,-0.36 0.029,-0.643 0.018,-0.846 -0.016,-0.273 -0.062,-0.534 -0.134,-0.781 0.077,-0.07 0.168,-0.107 0.271,-0.113 0.118,-0.009 0.262,0.029 0.432,0.107 0.236,0.113 0.357,0.169 0.365,0.169 l 0.07,0.058 c 0.007,-0.017 0.037,-0.115 0.094,-0.293 0.031,-0.114 0.083,-0.192 0.155,-0.231 l 0.068,0.049 c 0.029,-0.013 0.123,-0.075 0.28,-0.186 0.121,-0.08 0.205,-0.37 0.28,-0.374 0.08,-0.006 0.16,0.026 0.238,0.093 0.129,0.047 0.231,0.373 0.278,0.48 0.047,0.107 0.093,0.215 0.137,0.319 -0.333,0.031 -0.608,0.045 -0.823,0.039 -0.048,0.069 -0.123,0.084 -0.221,0.045 -0.099,-0.04 -0.169,-0.027 -0.21,0.035 0.007,0.106 0.018,0.3 0.033,0.58 0.008,0.251 0.019,0.447 0.034,0.59 0.02,0.221 0.056,0.422 0.103,0.605 0.06,-0.005 0.342,-0.021 0.845,-0.049 0.352,-0.018 0.653,-0.017 0.909,0.012 z m -0.346,-4.207 c -0.065,0.008 -0.141,0.018 -0.223,0.021 -0.169,0.011 -0.395,0.006 -0.681,-0.014 -0.35,-0.016 -0.562,-0.024 -0.637,-0.026 -0.096,0.132 -0.109,0.238 -0.096,0.465 0.028,0.488 0.045,0.7 0.048,0.634 0.106,0.042 0.164,0.129 0.171,0.261 0.004,0.179 0.008,0.27 0.017,0.275 -0.051,0.021 -0.073,0.083 -0.067,0.185 -0.082,-0.02 -0.171,-0.062 -0.264,-0.129 -0.125,-0.082 -0.164,0.21 -0.16,0.133 l -0.057,0.183 -0.069,-0.052 c -0.059,0.01 -0.162,-0.008 -0.31,-0.054 -0.147,-0.045 -0.253,-0.09 -0.314,-0.134 -0.005,-0.095 0.009,-0.149 0.046,-0.165 l -0.152,-0.116 -0.062,0.085 c -0.132,-0.615 -0.221,-1.698 -0.17,-2.359 0.283,0.02 0.615,-0.028 0.956,-0.043 0.229,-0.009 0.553,-0.025 0.968,-0.056 0.474,-0.033 0.813,-0.058 1.021,-0.069 0.093,0.062 0.144,0.146 0.148,0.252 0.005,0.066 -0.01,0.173 -0.041,0.321 -0.034,0.147 -0.076,0.329 -0.072,0.402 z"
   id="path148" />
		<path
   d="m 66.252,233.664 -0.011,0.001 c -0.045,0.093 -0.062,0.226 -0.044,0.396 0.022,0.245 0.032,0.37 0.033,0.376 -0.037,0.015 -0.086,-0.003 -0.148,-0.054 -0.096,0.035 -0.14,0.095 -0.135,0.179 10e-4,0.012 0.006,0.031 0.015,0.061 0.002,0.035 0.003,0.06 0.005,0.072 0.004,0.065 -0.017,0.114 -0.059,0.147 -0.108,-0.061 -0.25,-0.099 -0.426,-0.115 -0.175,-0.017 -0.341,-0.033 -0.499,-0.049 -0.003,-0.812 -0.112,-1.607 -0.327,-2.385 0,0.007 -0.005,-0.074 -0.014,-0.241 0,-0.12 -0.027,-0.204 -0.083,-0.255 l -0.073,0.067 c 0,-0.012 0.023,-0.036 0.073,-0.071 0.05,-0.036 0.075,-0.072 0.072,-0.108 -0.002,-0.018 -0.006,-0.035 -0.015,-0.054 l -0.082,-0.059 c -0.138,0.045 -0.202,0.155 -0.19,0.334 0.006,0.12 -0.042,0.205 -0.143,0.252 0.038,0.027 0.06,0.062 0.062,0.104 0.002,0.024 -0.002,0.058 -0.012,0.098 -0.007,0.044 -0.012,0.077 -0.01,0.102 0.003,0.053 0.03,0.097 0.085,0.13 0.002,0.036 0.021,0.357 0.056,0.966 0.023,0.388 0.013,0.718 -0.031,0.988 l 0.01,0.152 c -0.052,-0.003 -0.112,-0.003 -0.18,0.002 -0.073,0.005 -0.182,0.015 -0.321,0.031 -0.14,0.018 -0.243,0.028 -0.311,0.032 -0.272,0.016 -0.466,-0.029 -0.576,-0.138 l -0.116,-3.34 c -0.054,-0.164 -0.09,-0.393 -0.106,-0.685 l -0.038,-0.644 c -0.025,-0.316 -0.064,-0.56 -0.119,-0.729 0.022,-0.114 0.123,-0.179 0.3,-0.188 0.113,-0.008 0.262,0.008 0.45,0.046 0.087,-0.042 0.207,-0.067 0.363,-0.075 0.044,-0.003 0.115,-0.004 0.211,-0.004 0.104,-0.006 0.179,-0.011 0.223,-0.014 0.289,-0.016 0.481,-0.105 0.576,-0.266 0.134,-0.001 0.279,0.04 0.436,0.126 0.158,0.088 0.297,0.133 0.418,0.137 0.313,0.187 0.484,0.493 0.509,0.924 0.005,0.096 -0.032,0.475 -0.112,1.138 l -0.543,0.47 c 0.093,0.169 0.204,0.535 0.334,1.103 0.106,0.474 0.273,0.819 0.493,1.04 z m -1.001,-3.8 0.012,0.008 c 0.01,0.041 0.005,-0.105 -0.015,-0.438 -0.01,-0.163 -0.069,-0.278 -0.177,-0.349 -0.061,0.085 -0.073,-0.117 -0.102,0.085 -0.029,0.203 -0.078,0.347 -0.146,0.436 -0.187,-0.001 -0.229,-0.112 -0.341,-0.268 -0.069,-0.099 -0.103,-0.013 -0.103,-0.02 l -0.051,0.041 c -0.028,0.025 -0.06,0.055 -0.095,0.087 -0.035,0.032 -0.072,0.043 -0.111,0.033 0.004,0.034 -0.014,0.093 -0.051,0.169 -0.035,0.076 -0.053,0.13 -0.052,0.16 0.004,0.054 0.047,0.092 0.131,0.118 -0.016,0.12 -0.021,0.246 -0.013,0.379 0.005,0.07 0.021,0.233 0.051,0.489 0.034,0.201 0.048,0.374 0.042,0.518 0.067,0.003 0.13,0.002 0.189,-0.002 0.259,-0.015 0.428,-0.117 0.506,-0.307 0.025,-0.056 0.056,-0.256 0.088,-0.598 0.031,-0.259 0.111,-0.438 0.238,-0.541 z"
   id="path149" />
	</g>
	<g
   id="g152">
		<path
   d="m 29.395,218.257 v 0.009 c -0.032,0.311 -0.044,0.525 -0.031,0.643 -0.048,0.02 -0.111,0.022 -0.187,0.01 -0.1,-0.017 -0.156,-0.024 -0.172,-0.023 -0.043,0.002 -0.078,0.018 -0.104,0.045 -0.062,-0.039 -0.103,-0.056 -0.124,-0.05 -0.059,0.035 -0.086,0.085 -0.083,0.149 0.002,0.028 0.013,0.073 0.033,0.141 0.019,0.068 0.03,0.116 0.031,0.148 0.001,0.043 -0.007,0.111 -0.026,0.205 -0.02,0.093 -0.028,0.168 -0.025,0.229 0.004,0.069 0.019,0.181 0.046,0.331 0.026,0.149 0.041,0.262 0.045,0.338 -0.03,0.147 -0.042,0.297 -0.035,0.447 0.01,0.185 0.062,0.431 0.152,0.74 0.017,0.005 0.032,0.007 0.049,0.005 0.036,-0.001 0.082,-0.029 0.134,-0.08 0.052,-0.05 0.097,-0.076 0.134,-0.079 0.026,-0.001 0.058,0.004 0.09,0.02 0.098,0.313 0.147,0.518 0.153,0.609 0.002,0.044 10e-4,0.09 -0.001,0.138 -0.146,0.035 -0.248,-0.015 -0.308,-0.147 0.008,-0.037 -0.014,-0.077 -0.063,-0.118 l -0.162,0.171 c 0.158,0.024 0.221,0.146 0.188,0.363 -0.014,0.045 -0.047,0.068 -0.102,0.07 -0.093,-0.001 -0.136,-0.001 -0.13,-0.001 l -0.134,-0.237 -0.053,0.067 c -0.045,-0.112 -0.096,-0.165 -0.155,-0.161 -0.032,0.002 -0.089,0.028 -0.171,0.08 -0.081,0.054 -0.148,0.081 -0.202,0.083 -0.043,0.004 -0.086,-0.008 -0.131,-0.032 -0.004,-0.065 -0.012,-0.132 -0.022,-0.202 -0.012,-0.07 -0.048,-0.114 -0.108,-0.133 -0.003,-0.17 0.002,-0.608 0.014,-1.324 0.006,-0.541 0,-0.979 -0.017,-1.314 -0.008,-0.141 -0.017,-0.277 -0.029,-0.411 -0.028,-0.042 -0.057,-0.062 -0.084,-0.062 -0.022,0.002 -0.055,0.024 -0.098,0.07 -0.044,0.046 -0.082,0.066 -0.114,0.062 -0.004,-0.054 -0.028,-0.142 -0.074,-0.26 -0.047,-0.119 -0.071,-0.206 -0.075,-0.26 -0.004,-0.092 0.03,-0.172 0.103,-0.24 l 0.189,0.046 c 0.075,-0.105 0.107,-0.286 0.095,-0.54 -0.003,-0.048 -0.01,-0.126 -0.02,-0.23 -0.012,-0.104 -0.019,-0.181 -0.021,-0.23 -0.021,-0.415 0.106,-0.63 0.382,-0.645 0.102,-0.005 0.228,0.014 0.375,0.056 l 0.182,0.047 c 0.014,0.069 0.023,0.142 0.027,0.217 0.005,0.104 0.001,0.254 -0.014,0.452 -0.015,0.199 -0.02,0.344 -0.015,0.434 0.007,0.147 0.031,0.279 0.076,0.396 0.043,-0.003 0.111,-0.027 0.204,-0.071 0.092,-0.046 0.159,-0.069 0.203,-0.071 0.076,-0.008 0.138,0.026 0.185,0.1 z m -0.565,0.581 -0.009,-0.187 -0.059,-0.054 z"
   id="path150" />
		<path
   d="m 31.621,217.675 0.008,-0.001 c -0.019,0.147 -0.041,0.295 -0.066,0.442 -0.028,0.168 -0.077,0.301 -0.143,0.396 -0.011,-0.005 -0.078,-0.035 -0.199,-0.096 -0.084,-0.044 -0.158,-0.062 -0.222,-0.054 -0.05,0.317 -0.076,0.748 -0.081,1.295 -0.003,0.698 -0.009,1.12 -0.017,1.266 -0.083,-0.005 -0.143,0.021 -0.183,0.08 -0.041,0.059 -0.079,0.117 -0.113,0.179 -0.015,0.034 -0.021,0.064 -0.02,0.09 10e-4,0.045 0.038,0.087 0.111,0.125 0.072,0.04 0.109,0.083 0.111,0.133 -0.031,0.115 -0.1,0.176 -0.202,0.18 -0.048,0.003 -0.133,-0.013 -0.254,-0.043 -0.119,-0.032 -0.204,-0.047 -0.254,-0.044 l -0.116,-2.315 c 0.046,-0.061 0.065,-0.104 0.06,-0.124 l -0.067,-0.045 c 0.006,-0.098 0.011,-0.584 0.016,-1.455 0.003,-0.59 0.025,-1.067 0.066,-1.432 -0.005,10e-4 0.161,-0.011 0.501,-0.033 0.21,-0.011 0.347,0.048 0.407,0.175 0,0.118 -0.012,0.318 -0.036,0.602 -0.023,0.261 -0.033,0.461 -0.026,0.602 0.01,0.174 0.036,0.328 0.082,0.467 0.182,-0.248 0.394,-0.377 0.637,-0.39 z m 0.805,0.495 c 0.016,0.215 0.028,0.426 0.04,0.632 0.045,0.896 0.031,1.854 -0.042,2.874 -0.078,0.07 -0.197,0.085 -0.36,0.046 -0.16,-0.038 -0.277,-0.021 -0.35,0.046 -0.093,-0.119 -0.146,-0.334 -0.163,-0.648 -0.022,-0.453 -0.034,-0.688 -0.035,-0.704 -0.02,-1.135 0.092,-2.053 0.333,-2.752 0.279,0.071 0.47,0.24 0.577,0.506 z"
   id="path151" />
		<path
   d="m 35.267,219.346 c -0.035,0.072 -0.05,0.148 -0.045,0.228 0.003,0.083 0.007,0.161 0.012,0.237 -0.009,0.064 -0.026,0.129 -0.055,0.198 -0.05,-0.015 -0.091,-0.021 -0.124,-0.02 -0.037,0.002 -0.076,0.016 -0.114,0.042 -0.039,0.027 -0.071,0.041 -0.092,0.041 -0.033,0.003 -0.076,-0.01 -0.132,-0.033 l -0.376,-0.549 c 0.013,0.161 0.05,0.303 0.11,0.425 0.03,0.062 0.061,0.126 0.09,0.188 -0.22,0.04 -0.345,0.047 -0.372,0.02 l -0.053,0.068 -0.131,-0.172 c -0.102,0.124 -0.125,0.306 -0.069,0.547 0.066,0.262 0.07,0.45 0.012,0.567 0.082,0.121 0.179,0.177 0.293,0.172 0.049,-0.003 0.09,-0.02 0.127,-0.055 0.053,-0.134 0.105,-0.266 0.159,-0.398 0.078,-0.161 0.166,-0.244 0.263,-0.248 0.075,-0.005 0.164,0.035 0.266,0.117 0.121,0.043 0.184,0.099 0.188,0.168 0.001,0.044 -0.025,0.115 -0.083,0.211 -0.057,0.098 -0.085,0.174 -0.082,0.229 0.002,0.021 0.005,0.039 0.011,0.057 -0.078,0.057 -0.147,0.145 -0.21,0.261 -0.062,0.117 -0.143,0.197 -0.244,0.241 -0.087,0.083 -0.169,0.129 -0.244,0.133 -0.06,0.003 -0.148,-0.043 -0.267,-0.137 -0.118,-0.095 -0.229,-0.138 -0.331,-0.134 -0.042,-0.095 -0.148,-0.201 -0.315,-0.316 -0.168,-0.115 -0.272,-0.241 -0.312,-0.374 0.001,0.01 -10e-4,-0.032 -0.005,-0.129 -0.004,-0.055 -0.027,-0.09 -0.071,-0.103 l 0.061,-0.06 c -0.081,-0.002 -0.122,-0.048 -0.127,-0.141 -0.001,-0.01 -0.002,-0.032 -0.003,-0.065 0.003,-0.026 0.005,-0.048 0.004,-0.064 -0.003,-0.064 -0.024,-0.108 -0.063,-0.135 l -0.014,-0.282 c -0.008,-0.146 -0.037,-0.251 -0.09,-0.312 0.054,-0.344 0.106,-0.688 0.159,-1.03 0.088,-0.399 0.22,-0.604 0.392,-0.613 0.027,-0.001 0.054,0.003 0.081,0.012 0.156,-0.153 0.343,-0.236 0.564,-0.247 0.243,-0.012 0.512,0.062 0.807,0.22 0.227,0.376 0.369,0.788 0.425,1.235 z m -1.117,-0.895 -0.054,0.068 c -0.037,0.007 -0.083,-0.012 -0.133,-0.058 l 0.01,0.186 c -0.083,0.091 -0.115,0.23 -0.102,0.42 0.017,0.324 0.024,0.479 0.024,0.469 l 0.243,-0.003 c 0.115,-0.066 0.17,-0.174 0.161,-0.325 -0.003,-0.076 -0.028,-0.2 -0.079,-0.374 -0.047,-0.173 -0.072,-0.299 -0.07,-0.383 z"
   id="path152" />
	</g>
	<g
   id="g306">
		<polygon
   fill-rule="evenodd"
   clip-rule="evenodd"
   points="37.375,227.714 37.169,227.514 37.41,227.652 38.229,225.505 37.954,225.414 37.137,227.562 "
   id="polygon152" />
		<polygon
   fill-rule="evenodd"
   clip-rule="evenodd"
   points="37.536,227.493 37.526,227.217 37.428,227.256 37.169,227.514 37.375,227.714 37.639,227.441 "
   id="polygon153" />
		<polygon
   fill-rule="evenodd"
   clip-rule="evenodd"
   points="39.633,227.387 39.766,227.287 39.507,227.2 39.623,227.108 37.526,227.217 37.536,227.493 "
   id="polygon154" />
		<polygon
   fill-rule="evenodd"
   clip-rule="evenodd"
   points="40.583,225.139 40.441,224.961 40.454,225.226 40.311,225.048 39.507,227.2 39.766,227.287 "
   id="polygon155" />
		<polygon
   fill-rule="evenodd"
   clip-rule="evenodd"
   points="38.349,225.054 38.245,225.107 38.456,225.294 38.353,225.346 40.454,225.226 40.441,224.961 "
   id="polygon156" />
		<polygon
   fill-rule="evenodd"
   clip-rule="evenodd"
   points="37.984,225.367 37.954,225.414 38.229,225.505 38.197,225.552 38.456,225.294 38.245,225.107 "
   id="polygon157" />
		<polygon
   fill-rule="evenodd"
   clip-rule="evenodd"
   points="40.229,227.542 39.956,227.45 39.969,227.454 40.155,227.372 39.706,227.122 39.563,227.377 40.025,227.632 "
   id="polygon158" />
		<polygon
   fill-rule="evenodd"
   clip-rule="evenodd"
   points="40.972,225.226 40.848,225.473 40.773,225.303 39.956,227.45 40.229,227.542 41.046,225.394 "
   id="polygon159" />
		<polygon
   fill-rule="evenodd"
   clip-rule="evenodd"
   points="40.311,225.048 40.583,225.139 40.381,225.229 40.848,225.473 40.972,225.226 40.523,224.975 "
   id="polygon160" />
		<polygon
   points="39.563,227.377 39.522,227.249 37.526,227.346 37.267,227.604 38.098,225.463 38.085,225.458 38.345,225.198 40.29,225.104 40.311,225.048 40.454,225.095 40.583,225.139 40.575,225.162 40.916,225.351 41.046,225.394 40.992,225.533 41.945,227.797 41.14,229.949 40.099,227.499 39.965,227.554 39.956,227.45 39.966,227.425 39.638,227.244 "
   id="polygon161" />
		<polygon
   fill-rule="evenodd"
   clip-rule="evenodd"
   points="41.27,229.992 40.997,229.901 41.01,229.905 41.273,229.893 40.232,227.442 39.965,227.554 41.006,230.005 "
   id="polygon162" />
		<polygon
   fill-rule="evenodd"
   clip-rule="evenodd"
   points="42.079,227.742 41.824,227.858 41.814,227.753 40.997,229.901 41.27,229.992 42.088,227.846 "
   id="polygon163" />
		<polygon
   fill-rule="evenodd"
   clip-rule="evenodd"
   points="40.773,225.303 41.046,225.394 40.782,225.406 41.824,227.858 42.079,227.742 41.038,225.29 "
   id="polygon164" />
		<polygon
   fill-rule="evenodd"
   clip-rule="evenodd"
   fill="#ffffff"
   points="40.177,225.405 40.319,225.454 40.449,225.497 40.582,225.571 40.69,225.635 40.804,225.73 40.882,225.843 40.977,225.947 40.977,225.947 41.093,226.203 41.137,226.461 41.124,226.716 41.05,226.98 40.92,227.238 40.743,227.469 40.514,227.679 40.236,227.861 40.086,227.927 39.935,227.99 39.766,228.021 39.609,228.056 39.459,228.076 39.295,228.094 39.144,228.073 38.987,228.064 38.854,228.034 38.712,227.985 38.573,227.926 38.452,227.856 38.349,227.778 38.231,227.695 38.137,227.592 38.059,227.479 37.94,227.226 37.898,226.965 37.898,226.706 37.985,226.447 38.098,226.196 38.279,225.955 38.509,225.743 38.798,225.566 38.938,225.497 39.102,225.436 39.256,225.402 39.411,225.368 39.576,225.35 39.727,225.329 39.879,225.35 40.034,225.359 "
   id="polygon165" />
		<polygon
   fill-rule="evenodd"
   clip-rule="evenodd"
   points="40.281,225.83 40.424,225.877 40.549,225.934 40.688,225.996 40.791,226.071 40.908,226.153 40.984,226.267 41.076,226.384 41.076,226.384 41.08,226.371 41.196,226.627 41.235,226.897 41.224,227.153 41.152,227.404 41.037,227.668 40.842,227.904 40.631,228.108 40.341,228.285 40.186,228.362 40.034,228.427 39.878,228.46 39.71,228.493 39.559,228.514 39.411,228.523 39.255,228.514 39.091,228.488 38.957,228.457 38.814,228.41 38.689,228.354 38.556,228.28 38.447,228.215 38.348,228.124 38.249,228.033 38.161,227.904 38.041,227.662 37.998,227.402 38.015,227.134 38.085,226.884 38.201,226.62 38.379,226.391 38.608,226.179 38.896,226.003 39.053,225.925 39.2,225.872 39.359,225.825 39.529,225.796 39.676,225.786 39.827,225.766 39.979,225.786 40.133,225.796 "
   id="polygon166" />
		<polygon
   fill-rule="evenodd"
   clip-rule="evenodd"
   fill="#ffffff"
   points="40.358,226.116 40.501,226.163 40.639,226.223 40.76,226.292 40.868,226.358 40.984,226.439 41.062,226.553 41.152,226.669 41.275,226.911 41.313,227.184 41.3,227.439 41.231,227.688 41.102,227.948 40.919,228.189 40.708,228.393 40.419,228.569 40.276,228.652 40.111,228.713 39.956,228.747 39.787,228.776 39.636,228.8 39.489,228.808 39.333,228.8 39.169,228.773 39.035,228.742 38.893,228.695 38.768,228.639 38.633,228.565 38.525,228.5 38.413,228.405 38.33,228.306 38.239,228.189 38.119,227.948 38.075,227.687 38.088,227.433 38.161,227.169 38.278,226.906 38.46,226.664 38.697,226.47 38.976,226.287 39.131,226.211 39.281,226.145 39.438,226.11 39.606,226.079 39.757,226.06 39.904,226.05 40.073,226.063 40.212,226.079 "
   id="polygon167" />
		<polygon
   fill-rule="evenodd"
   clip-rule="evenodd"
   points="40.463,226.539 40.604,226.587 40.743,226.646 40.863,226.716 40.981,226.798 41.084,226.877 41.18,226.98 41.253,227.105 41.253,227.105 41.257,227.092 41.374,227.347 41.418,227.607 41.418,227.865 41.33,228.125 41.218,228.376 41.023,228.613 40.808,228.831 40.519,229.007 40.38,229.075 40.215,229.136 40.06,229.171 39.904,229.204 39.738,229.223 39.588,229.243 39.438,229.223 39.281,229.214 39.135,229.18 38.992,229.131 38.866,229.075 38.732,229.002 38.629,228.923 38.525,228.847 38.43,228.742 38.339,228.626 38.235,228.375 38.179,228.11 38.192,227.856 38.266,227.592 38.391,227.346 38.573,227.104 38.802,226.893 39.079,226.712 39.229,226.646 39.381,226.582 39.55,226.552 39.706,226.517 39.857,226.495 40.018,226.491 40.172,226.5 40.315,226.503 "
   id="polygon168" />
		<polygon
   fill-rule="evenodd"
   clip-rule="evenodd"
   fill="#ffffff"
   points="40.613,226.819 40.769,226.872 40.894,226.928 41.021,226.984 41.137,227.066 41.235,227.158 41.331,227.262 41.408,227.372 41.53,227.616 41.573,227.874 41.568,228.146 41.499,228.397 41.369,228.657 41.175,228.895 40.964,229.098 40.687,229.279 40.53,229.356 40.366,229.417 40.211,229.452 40.055,229.485 39.891,229.503 39.744,229.513 39.588,229.503 39.438,229.481 39.29,229.447 39.147,229.399 39.021,229.343 38.896,229.287 38.78,229.204 38.68,229.114 38.586,229.01 38.508,228.898 38.386,228.656 38.334,228.38 38.348,228.124 38.43,227.878 38.547,227.615 38.728,227.372 38.953,227.174 39.229,226.993 39.385,226.915 39.536,226.85 39.701,226.833 39.86,226.785 40.013,226.764 40.172,226.76 40.328,226.769 40.466,226.785 "
   id="polygon169" />
		<polygon
   fill-rule="evenodd"
   clip-rule="evenodd"
   points="40.73,227.248 40.872,227.296 40.998,227.353 41.119,227.421 41.235,227.503 41.339,227.581 41.434,227.685 41.525,227.802 41.525,227.802 41.629,228.052 41.686,228.315 41.671,228.57 41.599,228.833 41.473,229.081 41.291,229.323 41.062,229.535 40.785,229.716 40.635,229.78 40.47,229.841 40.315,229.875 40.159,229.91 40.008,229.932 39.844,229.947 39.691,229.928 39.536,229.918 39.402,229.888 39.247,229.836 39.121,229.779 39.001,229.711 38.884,229.629 38.78,229.551 38.685,229.446 38.607,229.335 38.491,229.08 38.435,228.816 38.447,228.561 38.533,228.301 38.646,228.049 38.827,227.809 39.057,227.596 39.347,227.42 39.485,227.351 39.649,227.291 39.805,227.256 39.961,227.222 40.125,227.204 40.276,227.183 40.427,227.204 40.57,227.209 "
   id="polygon170" />
		<polygon
   fill-rule="evenodd"
   clip-rule="evenodd"
   points="27.507,224.507 27.511,224.451 27.234,224.503 27.248,224.421 26.426,226.581 26.686,226.667 "
   id="polygon171" />
		<polygon
   fill-rule="evenodd"
   clip-rule="evenodd"
   points="27.481,224.325 27.486,224.312 27.213,224.393 27.218,224.381 27.234,224.503 27.511,224.451 "
   id="polygon172" />
		<polygon
   fill-rule="evenodd"
   clip-rule="evenodd"
   points="27.183,224.27 27.213,224.393 27.486,224.312 27.455,224.187 "
   id="polygon173" />
		<polygon
   fill-rule="evenodd"
   clip-rule="evenodd"
   points="27.183,224.27 27.455,224.187 27.421,224.075 27.148,224.157 "
   id="polygon174" />
		<polygon
   fill-rule="evenodd"
   clip-rule="evenodd"
   points="27.118,224.031 27.148,224.157 27.421,224.075 27.39,223.95 27.387,223.963 "
   id="polygon175" />
		<polygon
   fill-rule="evenodd"
   clip-rule="evenodd"
   points="27.365,223.897 27.084,223.876 27.084,223.92 27.118,224.031 27.387,223.963 27.352,223.85 "
   id="polygon176" />
		<polygon
   fill-rule="evenodd"
   clip-rule="evenodd"
   points="27.097,223.749 27.355,223.836 27.359,223.823 27.088,223.776 27.084,223.876 27.365,223.897 27.368,223.799 "
   id="polygon177" />
		<polygon
   fill-rule="evenodd"
   clip-rule="evenodd"
   fill="#4c4849"
   points="27.596,230.112 27.57,229.974 27.281,230.021 27.302,230.173 "
   id="polygon178" />
		<polygon
   fill-rule="evenodd"
   clip-rule="evenodd"
   points="28.466,228.327 28.461,228.254 28.198,228.312 28.206,228.242 27.389,230.39 27.648,230.475 "
   id="polygon179" />
		<polygon
   fill-rule="evenodd"
   clip-rule="evenodd"
   points="28.176,228.159 28.198,228.312 28.461,228.254 28.44,228.104 28.163,228.155 "
   id="polygon180" />
		<polygon
   fill-rule="evenodd"
   clip-rule="evenodd"
   points="28.138,228.018 28.163,228.155 28.44,228.104 28.401,227.961 "
   id="polygon181" />
		<polygon
   fill-rule="evenodd"
   clip-rule="evenodd"
   points="28.38,227.809 28.388,227.827 28.103,227.861 28.111,227.878 28.138,228.018 28.401,227.961 "
   id="polygon182" />
		<polygon
   fill-rule="evenodd"
   clip-rule="evenodd"
   points="28.09,227.642 28.362,227.731 28.086,227.695 28.103,227.861 28.388,227.827 28.366,227.677 "
   id="polygon183" />
		<g
   id="g186">
			<polygon
   fill="#4c4849"
   points="26.295,226.191 26.427,226.152 "
   id="polygon184" />
			<polygon
   fill="#4c4849"
   points="26.568,226.591 26.636,226.596 26.686,226.667 26.564,226.628 26.563,226.603 "
   id="polygon185" />
			<polygon
   points="27.325,224.231 27.355,224.355 27.377,224.464 27.507,224.507 26.686,226.667 26.636,226.596 26.568,226.591 26.563,226.603 26.564,226.628 26.686,226.667 26.565,226.66 26.568,226.759 26.485,226.655 26.417,226.65 26.399,226.529 26.449,226.519 26.503,226.379 26.365,226.418 26.326,226.317 26.295,226.191 26.427,226.152 26.295,226.191 26.3,226.179 26.265,226.067 26.405,226.04 26.408,225.941 27.23,223.782 27.226,223.794 27.226,223.881 27.248,223.989 27.291,224.119 "
   id="polygon186" />
		</g>
		<g
   id="g189">
			<polygon
   fill="none"
   points="32.957,226.657 33.075,226.394 "
   id="polygon187" />
			<polygon
   points="33.226,226.459 33.238,226.463 33.382,226.554 33.407,226.562 33.52,226.657 33.555,226.684 33.637,226.781 33.645,226.8 33.701,226.89 33.705,226.921 33.44,227.001 33.398,226.935 33.395,226.947 33.325,226.852 33.326,226.852 33.233,226.777 33.256,226.8 33.108,226.723 33.109,226.721 32.957,226.657 32.827,226.613 32.681,226.58 32.707,226.588 32.568,226.57 32.568,226.558 26.568,226.759 26.56,226.482 32.577,226.285 32.732,226.292 32.759,226.304 32.905,226.337 32.919,226.343 33.075,226.394 "
   id="polygon188" />
			<polygon
   points="33.455,227.024 33.434,227.004 33.44,227.001 "
   id="polygon189" />
		</g>
		<polygon
   fill-rule="evenodd"
   clip-rule="evenodd"
   points="36.921,232.057 36.921,231.972 36.647,232.052 36.647,231.967 35.825,234.127 36.099,234.218 "
   id="polygon190" />
		<polygon
   fill-rule="evenodd"
   clip-rule="evenodd"
   points="34.527,224.76 34.522,224.731 34.273,224.876 34.255,224.843 36.647,232.052 36.921,231.972 "
   id="polygon191" />
		<polygon
   fill-rule="evenodd"
   clip-rule="evenodd"
   points="34.454,224.634 34.211,224.8 34.225,224.804 34.217,224.787 34.273,224.876 34.522,224.731 34.467,224.64 "
   id="polygon192" />
		<polygon
   fill-rule="evenodd"
   clip-rule="evenodd"
   points="34.363,224.52 34.341,224.496 34.169,224.713 34.146,224.691 34.211,224.8 34.454,224.634 "
   id="polygon193" />
		<polygon
   fill-rule="evenodd"
   clip-rule="evenodd"
   points="34.203,224.393 34.073,224.652 34.052,224.631 34.169,224.713 34.341,224.496 34.225,224.415 "
   id="polygon194" />
		<polygon
   fill-rule="evenodd"
   clip-rule="evenodd"
   points="34.043,224.312 33.943,224.565 33.931,224.562 34.073,224.652 34.203,224.393 34.056,224.315 "
   id="polygon195" />
		<polygon
   fill-rule="evenodd"
   clip-rule="evenodd"
   points="33.879,224.242 33.789,224.513 33.806,224.506 33.775,224.509 33.943,224.565 34.043,224.312 33.892,224.246 "
   id="polygon196" />
		<polygon
   fill-rule="evenodd"
   clip-rule="evenodd"
   points="33.879,224.242 33.723,224.19 33.645,224.466 33.649,224.454 33.632,224.462 33.789,224.513 "
   id="polygon197" />
		<polygon
   fill-rule="evenodd"
   clip-rule="evenodd"
   points="33.563,224.151 33.551,224.146 33.529,224.427 33.503,224.419 33.645,224.466 33.723,224.19 "
   id="polygon198" />
		<polygon
   fill-rule="evenodd"
   clip-rule="evenodd"
   points="33.382,224.134 33.39,224.409 33.386,224.422 33.529,224.427 33.551,224.146 33.398,224.123 "
   id="polygon199" />
		<polygon
   fill-rule="evenodd"
   clip-rule="evenodd"
   points="27.248,224.421 27.507,224.507 27.52,224.512 27.373,224.604 33.39,224.409 33.382,224.134 27.377,224.335 "
   id="polygon200" />
		<polygon
   fill="#4c4849"
   points="29.023,231.063 29.031,231.081 29.011,231.069 "
   id="polygon201" />
		<g
   id="g206">
			<polygon
   fill="#4c4849"
   points="32.257,232.345 32.281,232.053 "
   id="polygon202" />
			<g
   id="g205">
				<polygon
   fill="none"
   points="32.257,232.345 32.27,232.192 "
   id="polygon203" />
				<g
   id="g204">
					<polygon
   fill="none"
   points="27.407,229.859 27.393,229.854 27.402,229.831 "
   id="polygon204" />
					<path
   d="m 27.302,230.173 0.026,0.139 0.052,0.147 0.065,0.108 0.367,0.193 0.367,0.194 0.354,0.191 0.358,0.177 0.014,0.005 0.363,0.163 0.362,0.166 0.394,0.159 0.398,0.147 0.013,0.004 0.423,0.112 0.424,0.112 0.014,0.005 0.467,0.069 0.479,0.074 0.014,0.004 0.521,0.028 0.019,-0.007 0.558,0.014 0.596,-0.02 0.632,-0.033 0.13,-0.086 0.816,-2.147 -0.138,-0.19 0.009,0.277 -0.044,-0.055 0.032,-0.08 -0.092,0.006 -0.038,-0.049 -0.021,0.054 -0.469,0.027 h -0.605 l -0.558,-0.012 -0.51,-0.026 -0.497,-0.065 -0.463,-0.081 -0.425,-0.113 -0.423,-0.112 -0.396,-0.147 -0.386,-0.144 -0.362,-0.164 -0.359,-0.177 -0.372,-0.182 -0.354,-0.19 -0.354,-0.19 -0.246,-0.13 0.008,-0.022 -0.13,-0.043 v 0 l -0.034,-0.154 -0.026,-0.14 -0.011,-0.047 0.098,-0.212 -0.137,-0.045 -0.007,-0.003 v 0 l -0.129,-0.042 -0.818,2.147 -0.008,0.069 0.021,0.15 z m 0.1,-0.342 0.005,0.028 -0.015,-0.006 z"
   id="path204" />
				</g>
			</g>
		</g>
		<polygon
   fill-rule="evenodd"
   clip-rule="evenodd"
   points="34.769,230.215 35.399,230.181 35.391,229.903 34.759,229.938 "
   id="polygon206" />
		<polygon
   fill-rule="evenodd"
   clip-rule="evenodd"
   points="34.172,230.232 34.769,230.215 34.759,229.938 34.163,229.956 "
   id="polygon207" />
		<polygon
   fill-rule="evenodd"
   clip-rule="evenodd"
   points="33.623,229.934 33.597,230.227 33.602,230.215 33.614,230.217 34.172,230.232 34.163,229.956 33.606,229.942 "
   id="polygon208" />
		<polygon
   fill-rule="evenodd"
   clip-rule="evenodd"
   points="33.1,229.901 33.112,229.907 33.064,230.181 33.078,230.184 33.597,230.227 33.623,229.934 "
   id="polygon209" />
		<polygon
   fill-rule="evenodd"
   clip-rule="evenodd"
   points="33.064,230.181 33.112,229.907 32.633,229.833 32.58,230.119 "
   id="polygon210" />
		<polygon
   fill-rule="evenodd"
   clip-rule="evenodd"
   points="32.152,229.76 32.166,229.764 32.104,230.032 32.118,230.038 32.58,230.119 32.633,229.833 "
   id="polygon211" />
		<polygon
   fill-rule="evenodd"
   clip-rule="evenodd"
   points="31.682,229.919 32.104,230.032 32.166,229.764 31.743,229.651 31.677,229.933 "
   id="polygon212" />
		<polygon
   fill-rule="evenodd"
   clip-rule="evenodd"
   points="31.332,229.544 31.24,229.816 31.254,229.82 31.677,229.933 31.743,229.651 31.319,229.539 "
   id="polygon213" />
		<polygon
   fill-rule="evenodd"
   clip-rule="evenodd"
   points="30.934,229.396 30.948,229.4 30.831,229.664 30.843,229.668 31.24,229.816 31.332,229.544 "
   id="polygon214" />
		<polygon
   fill-rule="evenodd"
   clip-rule="evenodd"
   points="30.831,229.664 30.948,229.4 30.567,229.244 30.449,229.509 "
   id="polygon215" />
		<polygon
   fill-rule="evenodd"
   clip-rule="evenodd"
   points="30.449,229.509 30.567,229.244 30.199,229.092 30.087,229.344 "
   id="polygon216" />
		<polygon
   fill-rule="evenodd"
   clip-rule="evenodd"
   points="29.841,228.917 29.71,229.175 29.715,229.161 29.723,229.181 30.087,229.344 30.199,229.092 29.828,228.913 "
   id="polygon217" />
		<polygon
   fill-rule="evenodd"
   clip-rule="evenodd"
   points="29.356,228.985 29.71,229.175 29.841,228.917 29.481,228.739 29.353,228.998 "
   id="polygon218" />
		<polygon
   fill-rule="evenodd"
   clip-rule="evenodd"
   points="29.002,228.795 29.353,228.998 29.481,228.739 29.128,228.55 28.988,228.792 "
   id="polygon219" />
		<polygon
   fill-rule="evenodd"
   clip-rule="evenodd"
   points="28.988,228.792 29.128,228.55 28.772,228.357 28.634,228.601 "
   id="polygon220" />
		<polygon
   fill-rule="evenodd"
   clip-rule="evenodd"
   points="28.406,228.164 28.206,228.242 28.466,228.327 28.267,228.405 28.634,228.601 28.772,228.357 "
   id="polygon221" />
		<polygon
   fill-rule="evenodd"
   clip-rule="evenodd"
   points="67.73,224.717 67.593,224.612 67.458,224.538 67.328,224.453 67.177,224.388 67.044,224.313 66.914,224.271 66.798,224.232 66.657,224.215 66.533,224.203 66.412,224.22 66.291,224.237 66.162,224.279 66.049,224.357 65.938,224.436 65.115,226.597 67.8,227.491 68.423,226.057 68.439,225.919 68.444,225.775 68.423,225.624 68.37,225.478 68.284,225.349 68.215,225.209 68.103,225.071 67.986,224.946 67.865,224.834 "
   id="polygon222" />
		<polygon
   fill-rule="evenodd"
   clip-rule="evenodd"
   points="67.938,227.552 67.679,227.423 67.847,227.35 65.163,226.454 65.071,226.727 67.757,227.62 "
   id="polygon223" />
		<g
   id="g237">
			<polygon
   fill="none"
   points="68.214,228.19 68.196,228.045 "
   id="polygon224" />
			<polygon
   fill="none"
   points="69.573,226.617 69.581,226.599 69.68,226.693 "
   id="polygon225" />
			<g
   id="g236">
				<polygon
   fill="none"
   points="69.581,226.599 69.68,226.693 69.573,226.617 "
   id="polygon226" />
				<g
   id="g235">
					<polygon
   fill="none"
   points="69.581,226.599 69.68,226.693 69.573,226.617 "
   id="polygon227" />
					<polygon
   points="26.547,226.045 26.543,226.015 26.265,226.067 26.262,226.037 26.265,225.938 26.278,225.897 27.097,223.749 27.355,223.836 26.562,225.959 "
   id="polygon228" />
					<g
   id="g234">
						<polygon
   fill="none"
   points="69.581,226.599 69.68,226.693 69.573,226.617 "
   id="polygon229" />
						<polygon
   fill="#4c4849"
   points="39.376,231.046 39.428,231.021 39.38,231.05 "
   id="polygon230" />
						<g
   id="g233">
							<polygon
   fill="none"
   points="39.583,231.245 39.48,231.146 "
   id="polygon231" />
							<polygon
   fill="none"
   points="69.581,226.599 69.68,226.693 69.573,226.617 "
   id="polygon232" />
							<polygon
   fill="none"
   points="35.966,234.17 35.966,234.174 35.825,234.127 35.943,234.128 35.956,234.17 "
   id="polygon233" />
							<path
   d="m 26.365,226.418 0.029,0.125 0.005,-0.014 0.21,-0.043 -0.054,0.138 6.018,-0.196 0.142,0.005 0.156,0.053 0.156,0.05 0.154,0.054 0.144,0.089 0.116,0.083 0.083,0.101 0.05,0.099 -0.141,0.044 2.392,7.21 0.142,0.001 0.003,0.089 h 0.216 l 0.203,-0.004 0.186,0.004 0.169,-0.029 0.172,-0.045 0.173,-0.084 0.16,-0.135 0.19,-0.182 0.004,-0.015 0.109,-0.149 0.124,-0.16 0.144,-0.168 0.1,-0.169 0.126,-0.203 0.13,-0.173 0.106,-0.193 0.139,-0.201 0.112,-0.163 0.16,-0.177 0.131,-0.173 0.15,-0.152 0.134,-0.142 0.144,-0.126 0.138,-0.111 0.16,-0.09 0.034,-0.019 -0.103,-0.099 v 0 l 0.103,0.099 0.161,-0.177 0.146,-0.14 0.13,-0.128 0.139,-0.114 0.135,-0.098 0.141,-0.083 0.126,-0.073 0.139,-0.068 0.155,-0.035 0.151,-0.063 0.156,-0.036 0.18,-0.025 0.199,-0.035 0.222,-0.013 0.238,-0.021 0.232,-0.01 0.014,0.006 25.967,-1.941 0.151,-0.019 0.139,-0.028 0.125,-0.029 0.131,-0.043 0.12,-0.061 0.126,-0.074 0.104,-0.095 0.121,-0.104 0.025,-0.033 0.454,-1.059 -0.236,-0.152 0.104,0.103 -0.017,0.014 -0.115,-0.081 -0.113,0.266 -0.077,0.045 -0.099,0.04 -0.117,0.047 -0.108,0.021 -0.138,0.026 -0.139,0.025 -25.98,1.936 -0.165,0.016 -0.159,0.006 -0.159,0.004 -0.169,0.027 H 41.85 l -0.15,0.024 -0.165,0.017 -0.15,0.021 -0.17,0.031 -0.15,0.021 -0.154,0.034 -0.174,0.044 -0.156,0.034 -0.165,0.061 -0.164,0.062 -0.155,0.077 -0.307,0.186 -0.312,0.285 -0.328,0.337 -0.316,0.385 -0.307,0.401 -0.264,0.359 -0.26,0.346 -0.215,0.26 -0.127,0.029 -0.107,0.022 -0.135,0.013 h -0.13 -0.13 l -0.111,-0.009 -0.143,-0.005 -0.126,-0.014 -2.384,-7.192 -0.053,-0.104 -0.082,-0.101 -0.115,-0.081 -0.157,-0.095 -0.151,-0.065 -0.155,-0.053 -0.147,-0.034 -0.143,-0.004 -6.013,0.184 -0.723,1.9 -0.004,-0.025 z m 43.208,0.199 0.008,-0.019 0.099,0.095 z"
   id="path233" />
						</g>
					</g>
				</g>
			</g>
		</g>
		<polygon
   fill-rule="evenodd"
   clip-rule="evenodd"
   points="69.334,226.951 69.46,226.879 69.559,226.797 69.68,226.693 69.474,226.493 69.382,226.593 69.287,226.663 69.195,226.719 69.097,226.757 69.001,226.783 68.889,226.817 68.769,226.835 68.634,226.848 68.664,227.147 68.819,227.111 68.957,227.086 69.084,227.055 69.214,227.012 "
   id="polygon237" />
		<polygon
   fill-rule="evenodd"
   clip-rule="evenodd"
   points="68.664,227.147 68.634,226.848 42.667,228.787 42.7,229.073 "
   id="polygon238" />
		<polygon
   fill-rule="evenodd"
   clip-rule="evenodd"
   points="41.088,229.241 41.24,229.219 41.408,229.189 41.547,229.161 41.706,229.159 41.871,229.142 42.035,229.124 42.199,229.107 42.346,229.099 42.523,229.086 42.7,229.073 42.667,228.787 42.501,228.805 42.339,228.821 42.165,228.821 42.001,228.839 41.84,228.844 41.686,228.878 41.524,228.882 41.348,228.895 41.191,228.929 41.037,228.964 40.868,228.994 40.694,229.037 40.548,229.089 40.371,229.145 40.194,229.201 40.037,229.278 40.154,229.534 40.306,229.47 40.453,229.417 40.631,229.361 40.777,229.31 40.937,229.263 "
   id="polygon239" />
		<polygon
   fill-rule="evenodd"
   clip-rule="evenodd"
   points="38.229,231.63 38.36,231.456 38.508,231.275 38.642,231.089 38.792,230.894 38.944,230.701 39.1,230.493 39.259,230.315 39.416,230.151 39.575,229.974 39.709,229.831 39.878,229.716 40.017,229.604 40.154,229.534 40.037,229.278 39.86,229.379 39.709,229.485 39.532,229.629 39.364,229.789 39.208,229.953 39.052,230.117 38.88,230.333 38.728,230.527 38.576,230.722 38.425,230.916 38.292,231.103 38.144,231.283 38.014,231.456 37.889,231.616 37.786,231.755 37.69,231.867 37.742,231.84 37.828,232.1 37.885,232.062 38.001,231.927 38.104,231.789 "
   id="polygon240" />
		<polygon
   fill="none"
   points="66.499,225.688 66.395,225.61 66.287,225.504 66.191,225.399 66.11,225.299 65.977,225.095 65.897,224.898 65.876,224.833 65.854,224.725 65.881,224.561 65.938,224.436 66.04,224.341 66.196,224.263 66.378,224.237 66.477,224.241 66.591,224.25 66.697,224.271 66.806,224.293 66.936,224.337 67.053,224.376 67.178,224.432 67.312,224.505 67.424,224.557 67.541,224.64 67.645,224.717 67.758,224.812 67.874,224.894 67.955,224.993 68.056,225.084 68.138,225.184 68.288,225.378 68.366,225.577 68.405,225.677 68.427,225.742 68.414,225.911 68.383,226.044 68.287,226.156 68.149,226.225 67.964,226.264 67.86,226.273 67.753,226.25 67.627,226.238 67.493,226.208 67.376,226.169 67.247,226.125 67.108,226.066 66.986,225.996 66.862,225.939 66.727,225.866 66.61,225.785 "
   id="polygon241" />
		<polygon
   fill-rule="evenodd"
   clip-rule="evenodd"
   fill="#ffffff"
   points="28.597,222.883 32.85,224.302 32.854,224.289 33.39,224.28 33.434,224.28 28.83,222.745 "
   id="polygon242" />
		<polygon
   fill-rule="evenodd"
   clip-rule="evenodd"
   fill="#ffffff"
   points="27.226,223.881 27.226,223.794 27.261,223.69 27.355,223.62 27.581,223.466 27.831,223.319 28.082,223.172 28.333,223.025 28.571,222.873 28.597,222.883 32.85,224.302 32.854,224.289 27.377,224.464 27.355,224.355 27.325,224.231 27.291,224.119 27.248,223.989 "
   id="polygon243" />
		<polygon
   fill="#ffffff"
   points="29.784,229.042 29.412,228.86 29.058,228.67 28.704,228.479 28.336,228.284 28.302,228.13 28.275,227.99 28.241,227.836 28.219,227.684 29.524,227.615 33.256,227.405 34.716,227.993 35.23,229.519 35.388,230.046 34.769,230.084 34.163,230.084 33.605,230.072 33.096,230.046 32.599,229.98 32.136,229.899 31.711,229.786 31.288,229.674 30.892,229.526 30.506,229.383 30.144,229.219 "
   id="polygon244" />
		<polygon
   fill-rule="evenodd"
   clip-rule="evenodd"
   fill="#ffffff"
   points="39.178,227.926 38.923,228.042 38.94,228.076 38.976,228.104 38.923,228.042 38.976,228.104 39.455,228.393 39.609,228.144 39.13,227.853 "
   id="polygon245" />
		<polygon
   fill-rule="evenodd"
   clip-rule="evenodd"
   fill="#ffffff"
   points="34.847,227.948 34.772,227.867 34.847,227.948 34.825,227.885 34.772,227.867 34.656,228.132 34.574,228.032 35.258,230.089 35.528,230.006 "
   id="polygon246" />
		<polygon
   fill-rule="evenodd"
   clip-rule="evenodd"
   fill="#ffffff"
   points="33.317,227.267 33.26,227.263 33.317,227.267 33.29,227.259 33.26,227.263 33.27,227.54 33.199,227.53 34.656,228.132 34.772,227.867 "
   id="polygon247" />
		<polygon
   fill-rule="evenodd"
   clip-rule="evenodd"
   fill="#ffffff"
   points="28.086,227.695 28.22,227.554 28.06,227.558 28.086,227.695 28.366,227.677 28.229,227.831 33.27,227.54 33.26,227.263 28.22,227.554 "
   id="polygon248" />
		<polygon
   fill-rule="evenodd"
   clip-rule="evenodd"
   fill="#ffffff"
   points="28.198,228.312 28.267,228.405 28.198,228.312 28.219,228.375 28.267,228.405 28.406,228.164 28.461,228.254 28.457,228.181 28.44,228.104 28.436,228.03 28.414,227.965 28.409,227.892 28.393,227.814 28.371,227.749 28.366,227.677 28.086,227.695 28.085,227.783 28.099,227.874 28.12,227.937 28.125,228.011 28.146,228.076 28.163,228.155 28.193,228.237 "
   id="polygon249" />
		<polygon
   fill-rule="evenodd"
   clip-rule="evenodd"
   fill="#ffffff"
   points="35.26,230.075 35.377,229.899 34.759,229.938 34.163,229.956 33.623,229.934 33.1,229.901 32.633,229.833 32.166,229.764 31.743,229.651 31.332,229.544 30.934,229.396 30.567,229.244 30.199,229.092 29.841,228.917 29.481,228.739 29.128,228.55 28.772,228.357 28.406,228.164 28.267,228.405 28.634,228.601 28.988,228.792 29.353,228.998 29.71,229.175 30.087,229.344 30.449,229.509 30.843,229.668 31.24,229.816 31.677,229.933 32.104,230.032 32.58,230.119 33.078,230.184 33.597,230.227 34.172,230.232 34.769,230.215 35.412,230.185 35.528,230.006 35.412,230.185 35.59,230.171 35.528,230.006 35.258,230.089 "
   id="polygon250" />
		<g
   id="g253">
			<polygon
   fill="none"
   points="37.975,232.006 37.869,231.903 "
   id="polygon251" />
			<polygon
   fill="none"
   points="36.912,231.867 36.887,231.868 "
   id="polygon252" />
			<polygon
   fill="none"
   points="38.349,226.137 34.565,224.874 "
   id="polygon253" />
		</g>
		<polygon
   fill-rule="evenodd"
   clip-rule="evenodd"
   fill="#ffffff"
   points="41.456,228.917 41.244,228.947 41.04,228.994 40.837,229.042 40.66,229.098 40.465,229.161 40.284,229.231 40.128,229.31 39.943,229.392 39.791,229.5 39.652,229.611 39.826,229.829 39.96,229.729 40.09,229.642 40.232,229.56 40.396,229.5 40.557,229.409 40.729,229.365 40.933,229.318 41.11,229.263 41.305,229.241 41.478,229.197 41.686,229.181 41.884,229.146 42.096,229.115 42.303,229.098 42.497,229.077 42.7,229.073 42.667,228.787 42.477,228.796 42.264,228.826 42.074,228.833 41.867,228.851 41.668,228.886 "
   id="polygon254" />
		<polygon
   fill-rule="evenodd"
   clip-rule="evenodd"
   fill="#ffffff"
   points="42.667,228.787 42.7,229.073 68.664,227.147 68.634,226.848 "
   id="polygon255" />
		<polygon
   fill-rule="evenodd"
   clip-rule="evenodd"
   fill="#ffffff"
   points="69.532,226.225 69.524,226.337 69.494,226.429 69.451,226.516 69.395,226.598 69.294,226.68 69.191,226.732 69.026,226.792 68.854,226.835 68.634,226.848 68.664,227.147 68.901,227.124 69.109,227.063 69.29,226.993 69.451,226.905 69.599,226.809 69.701,226.67 69.758,226.545 69.81,226.39 69.807,226.229 69.814,226.075 69.779,225.919 69.723,225.743 69.658,225.589 69.571,225.417 69.46,225.236 69.348,225.098 69.118,225.265 69.227,225.417 69.339,225.557 69.392,225.703 69.474,225.846 69.516,225.976 69.529,226.108 "
   id="polygon256" />
		<polygon
   fill-rule="evenodd"
   clip-rule="evenodd"
   fill="#ffffff"
   points="67.622,224.134 67.822,224.229 68.029,224.341 68.219,224.462 68.423,224.588 68.569,224.708 68.725,224.847 68.877,224.998 69.002,225.141 69.118,225.265 69.348,225.098 69.214,224.938 69.062,224.787 68.91,224.634 68.742,224.492 68.557,224.358 68.371,224.225 68.181,224.103 67.965,223.973 67.74,223.87 67.51,223.778 67.276,223.701 67.031,223.618 66.788,223.565 66.541,223.527 66.26,223.506 66.016,223.508 66.022,223.787 66.257,223.778 66.494,223.801 66.736,223.853 66.969,223.888 67.19,223.961 67.411,224.034 "
   id="polygon257" />
		<polygon
   fill-rule="evenodd"
   clip-rule="evenodd"
   fill="#ffffff"
   points="66.022,223.787 66.016,223.508 43.052,224.306 43.048,224.578 "
   id="polygon258" />
		<polygon
   fill-rule="evenodd"
   clip-rule="evenodd"
   fill="#ffffff"
   points="40.557,224.31 40.782,224.37 41.028,224.408 41.249,224.438 41.479,224.487 41.716,224.508 41.949,224.543 42.179,224.546 42.398,224.577 42.633,224.568 42.844,224.583 43.048,224.578 43.052,224.306 42.835,224.306 42.623,224.293 42.425,224.284 42.2,224.268 41.975,224.249 41.751,224.231 41.53,224.201 41.298,224.167 41.068,224.119 40.848,224.089 40.623,224.029 40.39,223.994 40.165,223.932 39.926,223.868 39.727,223.816 39.508,223.743 39.417,224.015 39.421,224.001 39.637,224.089 39.866,224.136 40.087,224.209 40.315,224.257 "
   id="polygon259" />
		<polygon
   fill-rule="evenodd"
   clip-rule="evenodd"
   fill="#ffffff"
   points="37.479,222.864 37.272,222.752 37.078,222.644 36.896,222.54 36.707,222.418 36.524,222.314 36.339,222.224 36.153,222.134 35.984,222.033 35.799,221.943 35.596,221.86 35.405,221.783 35.197,221.714 34.978,221.64 34.748,221.593 34.516,221.558 34.259,221.502 33.996,221.471 33.724,221.468 33.407,221.463 33.105,221.462 32.755,221.475 32.4,221.501 32.025,221.548 31.636,221.592 31.657,221.871 31.657,221.871 31.671,221.878 32.063,221.821 32.435,221.786 32.79,221.76 33.114,221.738 33.421,221.726 33.698,221.761 33.982,221.77 34.221,221.791 34.468,221.829 34.697,221.879 34.912,221.921 35.107,221.986 35.314,222.055 35.479,222.124 35.682,222.206 35.842,222.288 36.027,222.381 36.214,222.47 36.396,222.575 36.577,222.679 36.759,222.781 36.949,222.904 37.135,222.994 37.337,223.119 37.562,223.224 37.778,223.354 38.021,223.448 38.254,223.569 38.517,223.686 38.803,223.782 39.106,223.91 39.417,224.015 39.508,223.743 39.196,223.639 38.89,223.522 38.633,223.421 38.366,223.318 38.12,223.192 37.908,223.093 37.692,222.963 "
   id="polygon260" />
		<polygon
   fill-rule="evenodd"
   clip-rule="evenodd"
   fill="#ffffff"
   points="28.645,223 28.908,222.856 29.154,222.723 29.409,222.606 29.683,222.481 29.954,222.355 30.222,222.244 30.499,222.148 30.798,222.076 31.069,221.993 31.368,221.921 31.657,221.871 31.636,221.592 31.312,221.655 31.005,221.713 30.702,221.797 30.416,221.876 30.132,221.996 29.837,222.101 29.57,222.214 29.297,222.339 29.021,222.477 28.757,222.619 28.51,222.752 28.259,222.899 28.008,223.047 27.758,223.192 27.521,223.345 27.282,223.495 27.416,223.743 27.43,223.748 27.653,223.591 27.904,223.443 28.155,223.298 28.41,223.138 "
   id="polygon261" />
		<polygon
   fill-rule="evenodd"
   clip-rule="evenodd"
   fill="#ffffff"
   points="27.238,224.49 27.373,224.604 27.238,224.49 27.243,224.604 27.373,224.604 27.377,224.335 27.524,224.455 27.481,224.325 27.455,224.187 27.421,224.075 27.39,223.95 27.373,223.871 27.359,223.823 27.382,223.76 27.416,223.743 27.282,223.495 27.157,223.611 27.092,223.764 27.074,223.902 27.118,224.031 27.148,224.157 27.183,224.27 27.218,224.381 "
   id="polygon262" />
		<g
   id="g290">
			<polygon
   fill="none"
   points="37.951,225.514 37.984,225.367 37.986,225.368 "
   id="polygon263" />
			<polygon
   fill="#ffffff"
   points="37.984,225.367 37.99,225.354 37.986,225.368 "
   id="polygon264" />
			<polygon
   fill="#ffffff"
   points="37.951,225.514 37.925,225.419 37.984,225.367 "
   id="polygon265" />
			<g
   id="g289">
				<polygon
   fill="none"
   points="66.395,225.61 66.287,225.504 66.191,225.399 66.11,225.299 65.977,225.095 65.897,224.898 65.876,224.833 65.854,224.725 65.881,224.561 65.938,224.436 66.04,224.341 66.196,224.263 66.378,224.237 66.477,224.241 66.591,224.25 66.697,224.271 66.806,224.293 66.936,224.337 67.053,224.376 67.178,224.432 67.312,224.505 67.424,224.557 67.541,224.64 67.645,224.717 67.758,224.812 67.874,224.894 67.955,224.993 68.056,225.084 68.138,225.184 68.288,225.378 68.366,225.577 68.405,225.677 68.427,225.742 68.414,225.911 68.383,226.044 68.287,226.156 68.149,226.225 67.964,226.264 67.86,226.273 67.753,226.25 67.627,226.238 67.493,226.208 67.376,226.169 67.247,226.125 67.108,226.066 66.986,225.996 66.862,225.939 66.727,225.866 66.61,225.785 66.499,225.688 "
   id="polygon266" />
				<polygon
   fill="none"
   points="40.911,225.349 40.782,225.406 "
   id="polygon267" />
				<polygon
   fill="none"
   points="41.945,227.797 41.698,228.104 39.528,228.259 39.057,227.987 39.055,227.982 39.178,227.926 38.255,225.496 38.407,225.343 40.381,225.229 40.799,225.447 41.824,227.858 41.845,227.706 41.937,227.78 "
   id="polygon268" />
				<polygon
   fill="none"
   points="34.44,224.616 38.071,225.827 "
   id="polygon269" />
				<g
   id="g288">
					<polygon
   fill="none"
   points="66.395,225.61 66.287,225.504 66.191,225.399 66.11,225.299 65.977,225.095 65.897,224.898 65.876,224.833 65.854,224.725 65.881,224.561 65.938,224.436 66.04,224.341 66.196,224.263 66.378,224.237 66.477,224.241 66.591,224.25 66.697,224.271 66.806,224.293 66.936,224.337 67.053,224.376 67.178,224.432 67.312,224.505 67.424,224.557 67.541,224.64 67.645,224.717 67.758,224.812 67.874,224.894 67.955,224.993 68.056,225.084 68.138,225.184 68.288,225.378 68.366,225.577 68.405,225.677 68.427,225.742 68.414,225.911 68.383,226.044 68.287,226.156 68.149,226.225 67.964,226.264 67.86,226.273 67.753,226.25 67.627,226.238 67.493,226.208 67.376,226.169 67.247,226.125 67.108,226.066 66.986,225.996 66.862,225.939 66.727,225.866 66.61,225.785 66.499,225.688 "
   id="polygon270" />
					<polygon
   fill="none"
   points="41.824,227.858 41.845,227.706 41.937,227.78 41.945,227.797 41.698,228.104 39.528,228.259 39.057,227.987 39.055,227.982 39.178,227.926 38.255,225.496 38.407,225.343 40.381,225.229 40.799,225.447 "
   id="polygon271" />
					<polygon
   fill="none"
   points="34.44,224.616 38.071,225.827 "
   id="polygon272" />
					<g
   id="g287">
						<polygon
   fill="none"
   points="66.395,225.61 66.287,225.504 66.191,225.399 66.11,225.299 65.977,225.095 65.897,224.898 65.876,224.833 65.854,224.725 65.881,224.561 65.938,224.436 66.04,224.341 66.196,224.263 66.378,224.237 66.477,224.241 66.591,224.25 66.697,224.271 66.806,224.293 66.936,224.337 67.053,224.376 67.178,224.432 67.312,224.505 67.424,224.557 67.541,224.64 67.645,224.717 67.758,224.812 67.874,224.894 67.955,224.993 68.056,225.084 68.138,225.184 68.288,225.378 68.366,225.577 68.405,225.677 68.427,225.742 68.414,225.911 68.383,226.044 68.287,226.156 68.149,226.225 67.964,226.264 67.86,226.273 67.753,226.25 67.627,226.238 67.493,226.208 67.376,226.169 67.247,226.125 67.108,226.066 66.986,225.996 66.862,225.939 66.727,225.866 66.61,225.785 66.499,225.688 "
   id="polygon273" />
						<polygon
   fill="none"
   points="41.686,227.97 39.516,228.125 39.609,228.144 39.538,228.258 39.528,228.259 39.057,227.987 39.055,227.982 39.178,227.926 38.255,225.496 38.407,225.343 40.381,225.229 40.799,225.447 41.824,227.858 41.845,227.706 41.937,227.78 41.945,227.797 41.701,228.101 "
   id="polygon274" />
						<polygon
   fill="none"
   points="34.44,224.616 38.071,225.827 "
   id="polygon275" />
						<g
   id="g286">
							<polygon
   fill="none"
   points="46.013,228.692 41.899,227.321 "
   id="polygon276" />
							<polygon
   fill="none"
   points="46.53,228.65 41.793,227.069 "
   id="polygon277" />
							<polygon
   fill="none"
   points="66.395,225.61 66.287,225.504 66.191,225.399 66.11,225.299 65.977,225.095 65.897,224.898 65.876,224.833 65.854,224.725 65.881,224.561 65.938,224.436 66.04,224.341 66.196,224.263 66.378,224.237 66.477,224.241 66.591,224.25 66.697,224.271 66.806,224.293 66.936,224.337 67.053,224.376 67.178,224.432 67.312,224.505 67.424,224.557 67.541,224.64 67.645,224.717 67.758,224.812 67.874,224.894 67.955,224.993 68.056,225.084 68.138,225.184 68.288,225.378 68.366,225.577 68.405,225.677 68.427,225.742 68.414,225.911 68.383,226.044 68.287,226.156 68.149,226.225 67.964,226.264 67.86,226.273 67.753,226.25 67.627,226.238 67.493,226.208 67.376,226.169 67.247,226.125 67.108,226.066 66.986,225.996 66.862,225.939 66.727,225.866 66.61,225.785 66.499,225.688 "
   id="polygon278" />
							<polygon
   fill="none"
   points="39.055,227.982 39.178,227.926 38.255,225.496 38.407,225.343 40.381,225.229 40.799,225.447 41.824,227.858 41.845,227.706 41.937,227.78 41.945,227.797 41.701,228.101 41.698,228.104 39.538,228.258 39.528,228.259 39.057,227.987 "
   id="polygon279" />
							<polygon
   fill="none"
   points="34.44,224.616 38.071,225.827 "
   id="polygon280" />
							<polygon
   fill="#ffffff"
   points="46.53,228.65 46.017,228.681 46.013,228.692 41.899,227.321 41.793,227.069 "
   id="polygon281" />
							<g
   id="g285">
								<polygon
   fill="none"
   points="66.395,225.61 66.287,225.504 66.191,225.399 66.11,225.299 65.977,225.095 65.897,224.898 65.876,224.833 65.854,224.725 65.881,224.561 65.938,224.436 66.04,224.341 66.196,224.263 66.378,224.237 66.477,224.241 66.591,224.25 66.697,224.271 66.806,224.293 66.936,224.337 67.053,224.376 67.178,224.432 67.312,224.505 67.424,224.557 67.541,224.64 67.645,224.717 67.758,224.812 67.874,224.894 67.955,224.993 68.056,225.084 68.138,225.184 68.288,225.378 68.366,225.577 68.405,225.677 68.427,225.742 68.414,225.911 68.383,226.044 68.287,226.156 68.149,226.225 67.964,226.264 67.86,226.273 67.753,226.25 67.627,226.238 67.493,226.208 67.376,226.169 67.247,226.125 67.108,226.066 66.986,225.996 66.862,225.939 66.727,225.866 66.61,225.785 66.499,225.688 "
   id="polygon282" />
								<polygon
   fill="none"
   points="41.789,227.777 41.636,227.974 39.516,228.125 39.609,228.144 39.538,228.258 39.528,228.259 39.057,227.987 39.055,227.982 39.178,227.926 38.255,225.496 38.407,225.343 40.381,225.229 40.799,225.447 "
   id="polygon283" />
								<polygon
   fill="none"
   points="41.845,227.706 41.937,227.78 "
   id="polygon284" />
								<polygon
   fill="none"
   points="34.44,224.616 38.071,225.827 "
   id="polygon285" />
								<path
   fill="#ffffff"
   d="m 27.373,224.604 6.017,-0.195 0.126,0.013 0.116,0.04 0.157,0.051 0.142,0.049 0.129,0.087 0.096,0.06 0.056,0.092 0.044,0.043 2.393,7.209 0.035,0.112 0.117,-0.004 0.121,-0.017 0.138,0.017 0.169,0.014 0.159,-0.005 0.156,0.01 0.143,-0.039 0.159,-0.047 0.13,-0.087 0.156,-0.166 0.13,-0.172 0.121,-0.146 0.121,-0.146 0.104,-0.14 0.1,-0.126 0.086,-0.128 0.104,-0.14 0.086,-0.129 0.1,-0.125 0.1,-0.127 0.107,-0.107 0.113,-0.121 0.13,-0.129 0.13,-0.131 0.164,-0.145 -0.088,-0.11 0.13,-0.107 0.148,-0.095 0.169,-0.073 0.155,-0.078 0.168,-0.072 0.19,-0.053 0.194,-0.065 0.19,-0.051 0.182,-0.026 0.199,-0.036 0.211,-0.028 0.199,-0.034 0.207,-0.018 0.208,-0.018 0.194,-0.021 0.19,-0.008 3.338,-0.242 -4.113,-1.371 -0.106,-0.252 v 0 l 4.737,1.581 22.125,-1.651 0.411,-0.064 0.308,-0.143 0.212,-0.203 0.076,-0.233 v -0.259 l 0.005,-0.014 -0.073,-0.298 -0.146,-0.295 -0.213,-0.315 -0.125,-0.142 -0.138,-0.147 -0.151,-0.15 -0.159,-0.127 -0.169,-0.143 -0.189,-0.12 -0.204,-0.128 -0.204,-0.126 -0.217,-0.087 -0.212,-0.099 -0.233,-0.078 -0.246,-0.081 -0.232,-0.034 -0.243,-0.053 -0.252,-0.026 -0.244,0.005 -3.342,0.123 -19.622,0.672 h -0.217 l -0.202,0.003 -0.229,-0.003 -0.22,-0.03 -0.226,-0.018 -0.225,-0.018 -0.22,-0.031 -0.234,-0.034 -0.233,-0.034 -0.229,-0.048 -0.229,-0.049 -0.229,-0.047 -0.236,-0.063 -0.225,-0.062 -0.214,-0.056 -0.22,-0.072 -0.312,-0.105 -0.306,-0.117 -0.269,-0.103 -0.268,-0.104 -0.234,-0.12 -0.225,-0.104 -0.232,-0.123 -0.213,-0.099 -0.203,-0.125 -0.182,-0.104 -0.194,-0.107 -0.182,-0.104 -0.194,-0.107 -0.181,-0.105 -0.174,-0.086 -0.182,-0.104 -0.186,-0.09 -0.191,-0.078 -0.181,-0.062 -0.207,-0.068 -0.221,-0.073 -0.211,-0.058 -0.234,-0.033 -0.246,-0.039 -0.251,-0.027 -0.281,-0.021 -0.299,-0.014 -0.306,0.014 -0.32,0.008 -0.358,0.038 -0.372,0.035 -0.406,0.052 -0.303,0.043 -0.299,0.073 -0.299,0.073 -0.276,0.096 -0.293,0.104 -0.281,0.106 -0.267,0.112 -0.273,0.125 -0.26,0.13 -0.264,0.144 4.199,1.4 -5.652,0.189 z m 38.481,0.121 0.026,-0.164 0.057,-0.125 0.103,-0.095 0.156,-0.078 0.182,-0.025 0.099,0.004 0.114,0.009 0.106,0.021 0.108,0.021 0.13,0.044 0.117,0.039 0.125,0.056 0.134,0.073 0.112,0.052 0.117,0.083 0.104,0.077 0.113,0.096 0.116,0.081 0.081,0.1 0.101,0.091 0.082,0.1 0.15,0.194 0.078,0.199 0.039,0.1 0.021,0.065 -0.013,0.169 -0.031,0.133 -0.096,0.112 -0.138,0.068 -0.186,0.039 -0.104,0.01 -0.107,-0.023 -0.126,-0.012 -0.134,-0.03 -0.117,-0.039 -0.129,-0.044 -0.139,-0.059 -0.122,-0.07 -0.124,-0.057 -0.136,-0.073 -0.116,-0.081 -0.111,-0.097 -0.104,-0.078 -0.107,-0.106 -0.096,-0.104 -0.081,-0.101 -0.134,-0.204 -0.079,-0.196 -0.021,-0.065 z m -23.917,3.055 v 0 l -0.092,-0.074 z m -3.682,-2.284 0.152,-0.153 1.974,-0.113 0.418,0.218 0.99,2.33 -0.153,0.196 -2.12,0.151 0.094,0.019 -0.071,0.114 -0.01,10e-4 -0.472,-0.271 -0.002,-0.005 0.123,-0.057 z"
   id="path285" />
							</g>
						</g>
					</g>
				</g>
			</g>
		</g>
		<polygon
   fill-rule="evenodd"
   clip-rule="evenodd"
   points="64.479,226.038 64.518,226.224 64.397,226.155 64.376,226.046 64.549,226.003 64.584,226.116 "
   id="polygon290" />
		<polygon
   fill-rule="evenodd"
   clip-rule="evenodd"
   points="64.727,226.121 64.683,226.163 64.63,226.189 64.58,226.215 64.518,226.224 64.479,226.038 64.506,226.046 64.545,226.017 64.592,226.003 64.597,225.991 64.588,226.017 64.748,226.099 64.753,226.086 "
   id="polygon291" />
		<polygon
   fill-rule="evenodd"
   clip-rule="evenodd"
   points="64.277,225.005 64.359,225.104 64.467,225.213 64.57,225.334 64.67,225.468 64.752,225.61 64.799,225.771 64.8,225.943 64.748,226.099 64.588,226.017 64.622,225.912 64.614,225.81 64.584,225.684 64.506,225.572 64.42,225.442 64.326,225.338 64.216,225.229 64.134,225.131 64.146,225.135 64.264,225.001 "
   id="polygon292" />
		<polygon
   fill-rule="evenodd"
   clip-rule="evenodd"
   points="62.687,224.72 62.655,224.551 62.674,224.542 62.66,224.537 62.89,224.542 63.105,224.542 63.309,224.58 63.503,224.603 63.701,224.654 63.888,224.746 64.082,224.854 64.264,225.001 64.146,225.135 63.97,225.018 63.801,224.918 63.642,224.837 63.469,224.792 63.278,224.759 63.084,224.736 62.885,224.729 62.682,224.732 "
   id="polygon293" />
		<polygon
   fill-rule="evenodd"
   clip-rule="evenodd"
   points="45.979,225.513 45.806,225.427 45.879,225.378 62.655,224.551 62.687,224.72 45.904,225.561 "
   id="polygon294" />
		<polygon
   fill-rule="evenodd"
   clip-rule="evenodd"
   points="45.226,225.953 45.239,225.827 45.273,225.725 45.325,225.612 45.395,225.533 45.484,225.478 45.602,225.431 45.731,225.388 45.879,225.378 45.904,225.561 45.766,225.586 45.642,225.616 45.58,225.624 45.52,225.677 45.49,225.725 45.442,225.78 45.416,225.858 45.421,225.975 45.239,225.913 45.407,226.014 "
   id="polygon295" />
		<g
   id="g305">
			<polygon
   fill="none"
   points="45.904,225.561 45.879,225.383 "
   id="polygon296" />
			<g
   id="g304">
				<polygon
   fill="none"
   points="45.736,225.589 45.888,225.568 45.904,225.561 62.687,224.72 62.967,224.741 63.201,224.732 63.421,224.763 63.623,224.802 63.811,224.893 63.978,224.991 64.134,225.131 64.312,225.334 64.467,225.516 64.58,225.696 64.635,225.83 64.635,225.917 64.597,225.991 64.489,226.056 64.285,226.104 64,226.137 46.756,227.025 46.743,227.021 46.501,227.013 46.264,226.947 46.051,226.848 45.87,226.744 45.719,226.593 45.611,226.44 45.516,226.295 45.442,226.17 45.429,226.078 45.421,225.975 45.442,225.866 45.493,225.755 45.537,225.668 45.628,225.612 "
   id="polygon297" />
				<g
   id="g303">
					<path
   fill="none"
   d="m 45.442,225.866 -0.021,0.108 0.008,0.104 0.014,0.092 0.073,0.125 0.096,0.146 0.107,0.152 0.151,0.151 0.181,0.104 0.213,0.1 0.237,0.065 0.242,0.009 0.013,0.004 17.244,-0.889 0.285,-0.033 0.204,-0.048 0.107,-0.064 0.038,-0.074 v -0.087 l -0.055,-0.134 -0.113,-0.181 -0.155,-0.182 -0.178,-0.203 -0.156,-0.14 -0.167,-0.099 -0.188,-0.091 -0.202,-0.039 -0.22,-0.03 -0.234,0.009 -0.28,-0.021 -16.782,0.841 -0.017,0.008 -0.151,0.021 -0.108,0.023 -0.091,0.056 -0.044,0.087 z m 0.238,-0.107 16.782,-0.841 0.008,-0.025 0.225,0.018 h 0.217 l 0.203,0.038 0.194,0.021 0.199,0.053 0.186,0.091 0.182,0.104 0.194,0.151 0.072,0.08 0.066,0.066 0.061,0.078 0.051,0.059 0.073,0.085 0.057,0.09 0.048,0.072 0.048,0.074 0.004,0.03 -0.173,0.043 0.005,0.031 -0.045,-0.086 -0.046,-0.074 -0.065,-0.065 -0.047,-0.073 -0.053,-0.061 -0.061,-0.077 -0.065,-0.065 -0.077,-0.069 0.005,-0.006 -0.153,-0.115 -0.164,-0.113 -0.164,-0.069 -0.173,-0.044 -0.189,-0.035 -0.195,-0.02 -0.212,-0.015 -0.203,0.005 -16.776,0.829 z"
   id="path297" />
					<g
   id="g302">
						<path
   fill="none"
   d="m 45.442,225.866 -0.021,0.108 0.008,0.104 0.014,0.092 0.073,0.125 0.096,0.146 0.107,0.152 0.151,0.151 0.181,0.104 0.213,0.1 0.237,0.065 0.242,0.009 0.013,0.004 17.244,-0.889 0.285,-0.033 0.204,-0.048 0.107,-0.064 0.038,-0.074 v -0.087 l -0.055,-0.134 -0.113,-0.181 -0.155,-0.182 -0.178,-0.203 -0.156,-0.14 -0.167,-0.099 -0.188,-0.091 -0.202,-0.039 -0.22,-0.03 -0.234,0.009 -0.28,-0.021 -16.782,0.841 -0.017,0.008 -0.151,0.021 -0.108,0.023 -0.091,0.056 -0.044,0.087 z"
   id="path298" />
						<g
   id="g301">
							<polygon
   fill="none"
   points="45.628,225.612 45.736,225.589 45.835,225.576 45.697,225.837 62.479,224.995 62.694,224.995 62.894,225.005 63.098,225.043 63.291,225.065 63.477,225.113 63.654,225.187 63.831,225.304 64.005,225.434 64.064,225.511 64.129,225.576 64.19,225.651 64.255,225.718 64.303,225.791 64.364,225.869 64.411,225.943 64.467,226.033 64.474,226.06 64.285,226.104 64,226.137 46.756,227.025 46.743,227.021 46.501,227.013 46.264,226.947 46.051,226.848 45.87,226.744 45.719,226.593 45.611,226.44 45.516,226.295 45.442,226.17 45.429,226.078 45.421,225.975 45.442,225.866 45.493,225.755 45.537,225.668 "
   id="polygon298" />
							<polygon
   points="64.19,225.651 64.129,225.576 64.064,225.511 64.005,225.434 63.831,225.304 63.654,225.187 63.477,225.113 63.291,225.065 63.098,225.043 62.894,225.005 62.694,224.995 62.479,224.995 45.697,225.837 45.835,225.576 45.888,225.568 45.904,225.561 62.687,224.72 62.967,224.741 63.201,224.732 63.421,224.763 63.623,224.802 63.811,224.893 63.978,224.991 64.134,225.131 64.312,225.334 64.467,225.516 64.58,225.696 64.635,225.83 64.635,225.917 64.597,225.991 64.489,226.056 64.474,226.06 64.467,226.033 64.411,225.943 64.364,225.869 64.303,225.791 64.255,225.718 "
   id="polygon299" />
							<g
   id="g300">
								<polygon
   fill="none"
   points="45.697,225.837 45.837,225.576 45.888,225.568 45.904,225.561 62.687,224.72 62.967,224.741 63.201,224.732 63.421,224.763 63.623,224.802 63.811,224.893 63.978,224.991 64.134,225.131 64.312,225.334 64.467,225.516 64.58,225.696 64.635,225.83 64.635,225.917 64.597,225.991 64.489,226.056 64.474,226.06 64.285,226.104 64,226.137 46.756,227.025 46.743,227.021 46.501,227.013 46.264,226.947 46.051,226.848 45.87,226.744 45.719,226.593 45.611,226.44 45.516,226.295 45.442,226.17 45.429,226.078 45.421,225.975 45.442,225.866 45.449,225.85 45.463,225.846 45.55,225.846 "
   id="polygon300" />
								<path
   d="m 45.226,225.953 0.018,0.163 0.034,0.113 0.048,0.159 0.112,0.183 0.138,0.146 0.177,0.161 0.213,0.143 0.238,0.107 0.249,0.067 0.304,0.002 17.239,-0.875 0.329,-0.034 0.232,-0.052 0.17,-0.116 0.095,-0.157 -0.005,-0.159 -0.064,-0.194 -0.125,-0.186 -0.173,-0.218 -0.177,-0.202 -0.191,-0.165 -0.202,-0.124 -0.199,-0.096 -0.216,-0.043 -0.26,-0.043 h -0.26 l -0.295,0.017 -16.776,0.827 v 0.005 l -0.178,0.009 -0.182,0.068 -0.12,0.104 -0.083,0.116 -0.056,0.126 z m 0.195,0.022 0.021,-0.108 0.007,-0.017 0.014,-0.004 h 0.087 l 0.147,-0.009 0.14,-0.261 0.051,-0.008 0.017,-0.008 16.782,-0.841 0.28,0.021 0.234,-0.009 0.22,0.03 0.202,0.039 0.188,0.091 0.167,0.099 0.156,0.14 0.178,0.203 0.155,0.182 0.113,0.181 0.055,0.134 v 0.087 l -0.038,0.074 -0.107,0.064 -0.016,0.004 -0.188,0.044 -0.286,0.034 -17.244,0.889 -0.013,-0.004 -0.242,-0.009 -0.237,-0.065 -0.213,-0.1 -0.181,-0.104 -0.151,-0.151 -0.107,-0.152 -0.096,-0.146 -0.073,-0.125 -0.014,-0.092 z"
   id="path300" />
							</g>
						</g>
					</g>
				</g>
			</g>
		</g>
	</g>
</g></g></g><g
     inkscape:groupmode="layer"
     id="layer2"
     inkscape:label="card"><rect
       style="display:inline;fill:#56cf3b;fill-opacity:1;stroke:#080808;stroke-width:66.5694;stroke-linecap:round;stroke-linejoin:round;stroke-dasharray:none;stroke-dashoffset:0;stroke-opacity:1;paint-order:stroke fill markers"
       id="rect2"
       width="562.21545"
       height="822.4306"
       x="36.392284"
       y="33.284687"
       ry="13.230966"
       rx="9.7889004"
       inkscape:label="rect4" /></g></svg>
